<svg width="24" height="24" viewBox="0 0 24 24" fill="none" xmlns="http://www.w3.org/2000/svg">
<g clip-path="url(#clip0_5998_3756)">
<path d="M21.185 11.7539C21.1782 11.7685 21.1714 11.783 21.1646 11.7975C20.8975 12.3659 20.043 12.1402 20.0957 11.5145C20.1919 10.3708 20.0504 9.18857 19.6383 8.03741C18.3007 4.30082 13.8096 0.046209 9.83272 3.70753e-05C9.40804 -0.0048848 9.16419 0.481303 9.41483 0.824146C9.749 1.28118 10.0204 1.79638 10.2125 2.36151C10.8432 4.21658 10.4549 6.19162 9.34447 7.65899C8.88154 8.27071 7.89857 7.9686 7.88239 7.20163L7.88207 7.18494C7.87555 6.77835 7.94225 6.38797 8.07022 6.02643C8.12666 5.86701 7.97886 5.71012 7.81696 5.75891C5.56241 6.43846 3.84805 9.75608 3.84805 12.1225C3.84805 12.2953 3.85766 12.4659 3.87552 12.634C3.87779 12.9572 3.93401 13.2777 4.04188 13.5823L4.05393 13.6162C4.08856 13.7123 4.12494 13.8078 4.16305 13.9026C3.6258 13.2461 3.17311 12.5249 2.81563 11.7556C2.64871 11.3962 2.12038 11.4675 2.0555 11.8585C1.93991 12.5548 1.87939 13.2339 1.87939 13.8795C1.87939 19.4689 6.41047 24 11.9998 24C17.5892 24 22.1203 19.4689 22.1203 13.8795C22.1203 13.2339 22.0598 12.5547 21.9441 11.8583C21.8794 11.4683 21.3514 11.3952 21.185 11.7539Z" fill="url(#paint0_linear_5998_3756)"/>
<path d="M3.84805 12.1225C3.84805 12.2953 3.85766 12.4659 3.87552 12.634C3.87779 12.9571 3.93402 13.2777 4.04188 13.5823L4.05393 13.6161C4.08856 13.7122 4.12494 13.8077 4.16305 13.9025C3.6258 13.2461 3.17311 12.5248 2.81563 11.7556C2.64871 11.3961 2.12038 11.4675 2.0555 11.8585C1.93991 12.5547 1.87939 13.2339 1.87939 13.8795C1.87935 19.4689 6.41043 24 11.9998 24C17.5892 24 22.1203 19.4689 22.1203 13.8795C22.1203 13.2339 22.0597 12.5547 21.9441 11.8583C21.8793 11.4683 21.3513 11.3952 21.1849 11.7539C21.1781 11.7685 21.1713 11.783 21.1645 11.7975C20.8974 12.3659 20.0429 12.1402 20.0956 11.5144C20.1177 11.2485 20.1269 10.9817 20.1231 10.7148H4.02107C3.90829 11.2017 3.84805 11.6788 3.84805 12.1225Z" fill="url(#paint1_linear_5998_3756)"/>
<path d="M3.84805 12.1225C3.84805 12.2953 3.85766 12.4659 3.87552 12.634C3.87779 12.9571 3.93402 13.2777 4.04188 13.5823L4.05393 13.6161C4.08856 13.7122 4.12494 13.8077 4.16305 13.9025C3.6258 13.2461 3.17311 12.5248 2.81563 11.7556C2.64871 11.3961 2.12038 11.4675 2.0555 11.8585C1.93991 12.5547 1.87939 13.2339 1.87939 13.8795C1.87935 19.4689 6.41043 24 11.9998 24C17.5892 24 22.1203 19.4689 22.1203 13.8795C22.1203 13.2339 22.0597 12.5547 21.9441 11.8583C21.8793 11.4683 21.3513 11.3952 21.1849 11.7539C21.1781 11.7685 21.1713 11.783 21.1645 11.7975C20.8974 12.3659 20.0429 12.1402 20.0956 11.5144C20.1177 11.2485 20.1269 10.9817 20.1231 10.7148H4.02107C3.90829 11.2017 3.84805 11.6788 3.84805 12.1225Z" fill="url(#paint2_linear_5998_3756)"/>
<path d="M22.1203 13.8795C22.1203 13.2339 22.0598 12.5547 21.9442 11.8583C21.8794 11.4683 21.3514 11.3952 21.1849 11.7539C21.1782 11.7685 21.1714 11.783 21.1645 11.7975C20.8975 12.3659 20.043 12.1402 20.0957 11.5145C20.1918 10.3708 20.0504 9.18857 19.6383 8.03741C18.3007 4.30082 13.8097 0.046209 9.83275 3.70753e-05C9.40807 -0.0048848 9.16422 0.481303 9.41486 0.824193C9.74903 1.28122 10.0204 1.79643 10.2125 2.36155C10.8432 4.21663 10.455 6.19166 9.3445 7.65904C9.11397 7.96363 8.75454 8.04154 8.44971 7.9484V23.3591C9.55446 23.7731 10.7506 24 11.9999 24C17.5893 24 22.1203 19.4689 22.1203 13.8795Z" fill="url(#paint3_linear_5998_3756)"/>
<path d="M21.3493 17.76L14.7703 11.1809L8.05518 20.835L11.1877 23.9676C11.4558 23.9888 11.7266 24 12.0001 24C16.2147 24 19.827 21.4236 21.3493 17.76Z" fill="url(#paint4_linear_5998_3756)"/>
<path d="M17.1271 15.6053C17.1234 15.6135 17.1196 15.6216 17.1158 15.6297C16.9667 15.9469 16.4897 15.821 16.5191 15.4717C16.5728 14.8332 16.4938 14.1734 16.2638 13.5308C15.5171 11.445 13.0102 9.06999 10.7902 9.04421C10.5531 9.04144 10.417 9.31285 10.557 9.50424C10.7481 9.76604 10.8982 10.0554 11.0022 10.3624C11.3543 11.3979 11.1376 12.5004 10.5177 13.3195C10.2593 13.661 9.71059 13.4924 9.70154 13.0642L9.70135 13.0549C9.6975 12.8348 9.73308 12.6158 9.8064 12.4082C9.8379 12.3192 9.7554 12.2316 9.66502 12.2589C8.40652 12.6382 7.44957 14.4901 7.44957 15.811C7.44957 15.9075 7.45496 16.0027 7.4649 16.0966C7.46617 16.2769 7.49755 16.4559 7.55776 16.6259L7.56446 16.6448C7.58377 16.6988 7.60431 16.7519 7.62535 16.8046C7.32546 16.4382 7.07277 16.0356 6.8732 15.6062C6.78001 15.4056 6.48512 15.4455 6.44888 15.6637C6.38434 16.0524 6.35059 16.4314 6.35059 16.7918C6.35059 19.9118 8.87987 22.4411 11.9999 22.4411C15.12 22.4411 17.6492 19.9118 17.6492 16.7918C17.6492 16.4314 17.6154 16.0523 17.5509 15.6636C17.5148 15.4459 17.2201 15.4051 17.1271 15.6053Z" fill="url(#paint5_linear_5998_3756)"/>
<path d="M17.6491 16.7919C17.6491 16.4314 17.6153 16.0523 17.5508 15.6636C17.5146 15.4459 17.2199 15.4051 17.127 15.6053C17.1232 15.6135 17.1194 15.6216 17.1156 15.6297C16.9665 15.9469 16.4896 15.821 16.5189 15.4717C16.5726 14.8332 16.4937 14.1734 16.2636 13.5308C15.5169 11.445 13.01 9.06999 10.7901 9.04421C10.553 9.04144 10.4169 9.31285 10.5568 9.50424C10.7479 9.76604 10.8981 10.0554 11.0021 10.3624C11.3541 11.3979 11.1374 12.5004 10.5175 13.3195C10.3888 13.4896 10.1882 13.5331 10.0181 13.4811V22.0834C10.6348 22.3145 11.3024 22.4412 11.9998 22.4412C15.1198 22.4412 17.6491 19.9119 17.6491 16.7919Z" fill="url(#paint6_linear_5998_3756)"/>
<path d="M7.44957 15.8109C7.44957 15.9074 7.45496 16.0026 7.4649 16.0964C7.46617 16.2768 7.49755 16.4557 7.55776 16.6258L7.56446 16.6447C7.58377 16.6986 7.60431 16.7517 7.62535 16.8045C7.32546 16.4381 7.07277 16.0355 6.8732 15.6061C6.78001 15.4054 6.48512 15.4453 6.44888 15.6635C6.38434 16.0522 6.35059 16.4313 6.35059 16.7917C6.35059 19.9117 8.87987 22.441 11.9999 22.441C15.12 22.441 17.6492 19.9117 17.6492 16.7917C17.6492 16.4313 17.6154 16.0521 17.5509 15.6634C17.5148 15.4457 17.22 15.4049 17.1271 15.6051C17.1233 15.6133 17.1196 15.6214 17.1157 15.6295C16.9666 15.9468 16.4897 15.8208 16.519 15.4715C16.5315 15.3237 16.5364 15.1748 16.5344 15.0251H7.54618C7.48323 15.297 7.44957 15.5633 7.44957 15.8109Z" fill="url(#paint7_linear_5998_3756)"/>
<path d="M7.44957 15.8109C7.44957 15.9074 7.45496 16.0026 7.4649 16.0964C7.46617 16.2768 7.49755 16.4557 7.55776 16.6258L7.56446 16.6447C7.58377 16.6986 7.60431 16.7517 7.62535 16.8045C7.32546 16.4381 7.07277 16.0355 6.8732 15.6061C6.78001 15.4054 6.48512 15.4453 6.44888 15.6635C6.38434 16.0522 6.35059 16.4313 6.35059 16.7917C6.35059 19.9117 8.87987 22.441 11.9999 22.441C15.12 22.441 17.6492 19.9117 17.6492 16.7917C17.6492 16.4313 17.6154 16.0521 17.5509 15.6634C17.5148 15.4457 17.22 15.4049 17.1271 15.6051C17.1233 15.6133 17.1196 15.6214 17.1157 15.6295C16.9666 15.9468 16.4897 15.8208 16.519 15.4715C16.5315 15.3237 16.5364 15.1748 16.5344 15.0251H7.54618C7.48323 15.297 7.44957 15.5633 7.44957 15.8109Z" fill="url(#paint8_linear_5998_3756)"/>
<path d="M2.96136 8.40587C3.70184 8.55774 4.2919 7.79621 3.99631 7.10049C3.77539 6.58056 3.81007 5.9634 4.14331 5.45565L4.14495 5.45312C4.22918 5.32524 4.16192 5.15312 4.01253 5.11946C3.32225 4.96398 2.5775 5.23941 2.16631 5.8659C1.63643 6.67327 1.86139 7.75735 2.66876 8.28727C2.75918 8.34652 2.85786 8.38463 2.96136 8.40587Z" fill="url(#paint9_linear_5998_3756)"/>
<path d="M2.96136 8.40587C3.70184 8.55774 4.2919 7.79621 3.99631 7.10049C3.77539 6.58056 3.81007 5.9634 4.14331 5.45565L4.14495 5.45312C4.22918 5.32524 4.16192 5.15312 4.01253 5.11946C3.32225 4.96398 2.5775 5.23941 2.16631 5.8659C1.63643 6.67327 1.86139 7.75735 2.66876 8.28727C2.75918 8.34652 2.85786 8.38463 2.96136 8.40587Z" fill="url(#paint10_linear_5998_3756)"/>
<path d="M2.96136 8.40587C3.70184 8.55774 4.2919 7.79621 3.99631 7.10049C3.77539 6.58056 3.81007 5.9634 4.14331 5.45565L4.14495 5.45312C4.22918 5.32524 4.16192 5.15312 4.01253 5.11946C3.32225 4.96398 2.5775 5.23941 2.16631 5.8659C1.63643 6.67327 1.86139 7.75735 2.66876 8.28727C2.75918 8.34652 2.85786 8.38463 2.96136 8.40587Z" fill="url(#paint11_linear_5998_3756)"/>
</g>
<defs>
<linearGradient id="paint0_linear_5998_3756" x1="6.75622" y1="8.27704" x2="16.6551" y2="18.1759" gradientUnits="userSpaceOnUse">
<stop stop-color="#FFA1AE"/>
<stop offset="1" stop-color="#FF4565"/>
</linearGradient>
<linearGradient id="paint1_linear_5998_3756" x1="14.2548" y1="17.4797" x2="17.7635" y2="21.7235" gradientUnits="userSpaceOnUse">
<stop stop-color="#FE0364" stop-opacity="0"/>
<stop offset="0.234" stop-color="#F90362" stop-opacity="0.234"/>
<stop offset="0.517" stop-color="#EA035B" stop-opacity="0.517"/>
<stop offset="0.824" stop-color="#D20250" stop-opacity="0.824"/>
<stop offset="1" stop-color="#C00148"/>
</linearGradient>
<linearGradient id="paint2_linear_5998_3756" x1="11.6818" y1="17.3091" x2="11.047" y2="24.1928" gradientUnits="userSpaceOnUse">
<stop stop-color="#FE0364" stop-opacity="0"/>
<stop offset="0.234" stop-color="#F90362" stop-opacity="0.234"/>
<stop offset="0.517" stop-color="#EA035B" stop-opacity="0.517"/>
<stop offset="0.824" stop-color="#D20250" stop-opacity="0.824"/>
<stop offset="1" stop-color="#C00148"/>
</linearGradient>
<linearGradient id="paint3_linear_5998_3756" x1="14.4837" y1="10.8464" x2="20.7659" y2="7.97263" gradientUnits="userSpaceOnUse">
<stop stop-color="#FE0364" stop-opacity="0"/>
<stop offset="0.234" stop-color="#F90362" stop-opacity="0.234"/>
<stop offset="0.517" stop-color="#EA035B" stop-opacity="0.517"/>
<stop offset="0.824" stop-color="#D20250" stop-opacity="0.824"/>
<stop offset="1" stop-color="#C00148"/>
</linearGradient>
<linearGradient id="paint4_linear_5998_3756" x1="19.6069" y1="22.4731" x2="11.9212" y2="16.7924" gradientUnits="userSpaceOnUse">
<stop stop-color="#FE0364" stop-opacity="0"/>
<stop offset="0.234" stop-color="#F90362" stop-opacity="0.234"/>
<stop offset="0.517" stop-color="#EA035B" stop-opacity="0.517"/>
<stop offset="0.824" stop-color="#D20250" stop-opacity="0.824"/>
<stop offset="1" stop-color="#C00148"/>
</linearGradient>
<linearGradient id="paint5_linear_5998_3756" x1="9.67984" y1="14.0072" x2="14.2244" y2="19.2869" gradientUnits="userSpaceOnUse">
<stop stop-color="#FEF0AE"/>
<stop offset="1" stop-color="#FAC600"/>
</linearGradient>
<linearGradient id="paint6_linear_5998_3756" x1="14.5737" y1="14.7946" x2="16.1108" y2="14.26" gradientUnits="userSpaceOnUse">
<stop stop-color="#FE9738" stop-opacity="0"/>
<stop offset="1" stop-color="#FE9738"/>
</linearGradient>
<linearGradient id="paint7_linear_5998_3756" x1="10.4313" y1="19.643" x2="9.29518" y2="21.492" gradientUnits="userSpaceOnUse">
<stop stop-color="#FE9738" stop-opacity="0"/>
<stop offset="1" stop-color="#FE9738"/>
</linearGradient>
<linearGradient id="paint8_linear_5998_3756" x1="13.3531" y1="19.8296" x2="14.2441" y2="21.7232" gradientUnits="userSpaceOnUse">
<stop stop-color="#FE9738" stop-opacity="0"/>
<stop offset="1" stop-color="#FE9738"/>
</linearGradient>
<linearGradient id="paint9_linear_5998_3756" x1="2.38109" y1="5.89051" x2="4.45287" y2="7.62816" gradientUnits="userSpaceOnUse">
<stop stop-color="#FFA1AE"/>
<stop offset="1" stop-color="#FF4565"/>
</linearGradient>
<linearGradient id="paint10_linear_5998_3756" x1="2.933" y1="7.1912" x2="2.46514" y2="8.41088" gradientUnits="userSpaceOnUse">
<stop stop-color="#FE0364" stop-opacity="0"/>
<stop offset="0.234" stop-color="#F90362" stop-opacity="0.234"/>
<stop offset="0.517" stop-color="#EA035B" stop-opacity="0.517"/>
<stop offset="0.824" stop-color="#D20250" stop-opacity="0.824"/>
<stop offset="1" stop-color="#C00148"/>
</linearGradient>
<linearGradient id="paint11_linear_5998_3756" x1="2.921" y1="6.59626" x2="4.44139" y2="7.04738" gradientUnits="userSpaceOnUse">
<stop stop-color="#FE0364" stop-opacity="0"/>
<stop offset="0.234" stop-color="#F90362" stop-opacity="0.234"/>
<stop offset="0.517" stop-color="#EA035B" stop-opacity="0.517"/>
<stop offset="0.824" stop-color="#D20250" stop-opacity="0.824"/>
<stop offset="1" stop-color="#C00148"/>
</linearGradient>
<clipPath id="clip0_5998_3756">
<rect width="24" height="24" fill="white"/>
</clipPath>
</defs>
</svg>
