<svg width="135" height="28" viewBox="0 0 135 28" fill="none" xmlns="http://www.w3.org/2000/svg">
<path d="M28.3121 21.684C28.28 21.5851 28.2479 21.4811 28.2158 21.3846C28.1639 21.209 28.1318 21.0135 28.1318 20.8304C28.1244 18.7123 28.1244 16.5942 28.1244 14.4761C28.1244 12.8331 27.5787 11.2098 26.4798 9.99242C25.6328 9.05957 24.5339 8.3692 23.2794 8.10197C23.156 8.07475 23.0251 8.05 22.9016 8.03763C20.41 7.69121 17.8541 7.86195 15.2835 7.92628L13.8389 12.019C14.3648 12.019 14.7896 12.0264 15.2044 12.019C17.059 12.0115 18.9135 11.9472 20.773 12.0066C22.0744 12.0388 22.914 12.5683 23.277 13.5185C23.4128 13.8698 23.4795 14.2682 23.4844 14.7235C23.4128 14.7111 23.3486 14.7037 23.277 14.6913C22.9066 14.6394 22.5485 14.58 22.1855 14.528C19.9161 14.2286 17.6714 14.293 15.4983 15.0823C13.1054 15.9483 11.7053 18.205 11.9992 20.6893C12.2461 22.8594 14.0611 24.5816 16.5083 24.9132C19.0073 25.2596 21.3088 24.9404 23.2794 23.2454C23.5017 23.0623 23.7091 22.8668 23.9166 22.6466C23.9363 22.8866 23.9808 23.1217 24.0524 23.3493C24.203 23.8244 24.3512 24.2871 24.4944 24.7498C24.5537 24.9453 24.6302 25.0171 24.845 25.0097C26.0106 25.0022 27.1737 25.0022 28.3393 25.0022H29.1468C29.2184 25.0022 29.29 24.9899 29.3937 24.9824C29.0233 23.869 28.6652 22.7802 28.3146 21.684H28.3121ZM23.277 18.7692C21.7805 20.3479 20.2445 21.4416 18.0591 21.2139C17.2664 21.1347 16.4787 20.9269 16.3996 19.9569C16.328 18.9523 16.9972 18.3658 17.8838 18.1456C19.6519 17.7027 21.3829 17.9625 23.277 18.6158C23.3165 18.6281 23.356 18.643 23.393 18.6554L23.277 18.7717V18.7692Z" fill="url(#paint0_linear_6952_45632)"/>
<path d="M48.4522 25.0343H43.6072V24.673C43.6072 21.6913 43.6072 18.7097 43.6072 15.728C43.6072 14.9758 43.5257 14.2359 43.2245 13.5357C42.6269 12.1475 41.4045 11.4299 39.792 11.5264C38.4239 11.6081 37.2732 12.531 36.8904 13.9365C36.7348 14.5056 36.6607 15.1143 36.6558 15.7032C36.6336 18.6849 36.6459 21.6666 36.6459 24.6483C36.6459 24.767 36.6459 24.8858 36.6459 25.0244H31.8009V24.678C31.8009 20.3502 31.8009 16.0224 31.796 11.6947C31.796 11.4819 31.754 11.2592 31.6849 11.0588C31.3145 10.0096 30.9292 8.9654 30.5391 7.88903C30.6378 7.88161 30.7119 7.87419 30.786 7.87419C32.2183 7.87419 33.653 7.87913 35.0853 7.86924C35.2927 7.86924 35.3791 7.93357 35.4433 8.1241C35.6606 8.76003 35.9002 9.38853 36.1471 10.064C36.3496 9.81908 36.5101 9.60875 36.6879 9.41327C38.1103 7.86181 39.9056 7.27538 41.9626 7.41889C43.7183 7.54014 45.2395 8.19586 46.4347 9.52462C47.457 10.6629 48.0275 12.0188 48.2695 13.5109C48.3905 14.2557 48.4423 15.0178 48.4473 15.7725C48.467 18.7344 48.4547 21.6963 48.4547 24.6582C48.4547 24.7769 48.4547 24.8932 48.4547 25.0392L48.4522 25.0343Z" fill="url(#paint1_linear_6952_45632)"/>
<path d="M114.257 10.6232C113.06 11.472 111.894 12.3009 110.763 13.1026C110.296 12.7215 109.886 12.3256 109.417 12.0163C108.516 11.42 107.526 11.2666 106.481 11.5982C106.323 11.6476 106.167 11.7342 106.037 11.8332C105.498 12.2415 105.414 12.8972 105.911 13.355C106.246 13.6643 106.659 13.9266 107.084 14.0924C108.306 14.5675 109.553 14.9733 110.783 15.4286C111.919 15.8492 112.946 16.453 113.692 17.4378C115.085 19.2763 115.191 22.2406 112.62 24.0643C111.185 25.0813 109.555 25.4623 107.832 25.4673C104.75 25.4772 102.244 24.2573 100.322 21.8422C100.28 21.7878 100.243 21.7309 100.187 21.6517C101.342 20.8277 102.49 20.0087 103.565 19.2392C104.165 19.7563 104.696 20.3032 105.311 20.7263C106.353 21.4439 107.531 21.6146 108.763 21.3375C108.973 21.2904 109.183 21.2063 109.373 21.1024C110.054 20.7263 110.163 20.0161 109.568 19.5039C109.207 19.1946 108.76 18.9546 108.313 18.7814C107.074 18.2939 105.807 17.8807 104.57 17.3932C103.296 16.8885 102.182 16.1412 101.493 14.9114C100.305 12.7933 100.641 9.9304 103.273 8.40121C104.854 7.4832 106.575 7.23328 108.368 7.39907C110.775 7.62176 112.692 8.76247 114.257 10.6282V10.6232Z" fill="url(#paint2_linear_6952_45632)"/>
<path d="M87.131 24.9775V24.594C87.131 20.2662 87.131 15.9409 87.1261 11.6132C87.1261 11.4202 87.089 11.2173 87.0248 11.0342C86.6495 9.97511 86.2618 8.921 85.8691 7.83968C85.9679 7.83226 86.042 7.82484 86.1161 7.82484C87.5483 7.82484 88.9806 7.82979 90.4129 7.81989C90.6178 7.81989 90.7067 7.88175 90.7734 8.07228C90.9561 8.60675 91.1611 9.13628 91.371 9.70539C93.791 6.91672 96.616 6.79795 99.7472 8.31724C99.1422 9.71529 98.557 11.0614 97.9841 12.3852C97.4951 12.1996 97.0383 11.972 96.5518 11.8507C94.5294 11.3484 92.7193 12.4297 92.2131 14.4612C92.0575 15.0823 91.9883 15.7405 91.9834 16.3814C91.9587 19.123 91.9735 21.8647 91.9735 24.6063V24.98H87.1285L87.131 24.9775Z" fill="url(#paint3_linear_6952_45632)"/>
<path d="M80.8461 20.3205C80.1695 20.6916 79.5003 21.1024 78.7916 21.4166C77.426 22.0229 75.9814 22.2307 74.5047 21.919C73.5614 21.7235 72.8131 21.2286 72.3439 20.3155C76.2851 17.8634 80.209 15.4261 84.1848 12.9492C83.8391 12.4023 83.5353 11.8407 83.1501 11.3334C81.5055 9.15591 79.325 7.87168 76.5938 7.66383C73.9589 7.46835 71.5908 8.24285 69.5881 9.97742C67.1162 12.1277 65.9901 14.8669 66.4865 18.138C67.0643 22.0303 70.2079 25.1382 74.0775 25.8236C76.5765 26.2665 78.962 25.8558 81.2462 24.8066C81.9105 24.4998 82.5352 24.1162 83.1921 23.7574C82.555 22.4732 81.95 21.2533 81.3375 20.0161C81.1548 20.1324 81.0116 20.2388 80.8486 20.323L80.8461 20.3205ZM73.5095 11.7417C75.2974 10.8756 77.5495 11.1354 78.7002 12.3677C76.0258 13.9909 73.3589 15.6141 70.6524 17.2497C70.2696 15.2356 71.4327 12.7463 73.5095 11.7417Z" fill="url(#paint4_linear_6952_45632)"/>
<path d="M131.113 19.9371C130.437 20.3082 129.768 20.719 129.064 21.0332C127.691 21.632 126.254 21.8473 124.769 21.5355C123.826 21.3326 123.085 20.8378 122.616 19.9321C126.552 17.48 130.474 15.0377 134.455 12.5658C134.104 12.0115 133.798 11.4523 133.412 10.95C131.768 8.76507 129.587 7.48828 126.856 7.28043C124.221 7.08495 121.853 7.85449 119.858 9.594C117.379 11.7443 116.255 14.4835 116.749 17.7497C117.327 21.6469 120.47 24.7498 124.34 25.4352C126.844 25.8781 129.224 25.4748 131.509 24.4257C132.173 24.1188 132.798 23.7353 133.454 23.3765C132.817 22.0923 132.217 20.8724 131.6 19.6352C131.417 19.7465 131.274 19.8579 131.111 19.942L131.113 19.9371ZM123.777 11.3583C125.572 10.4922 127.824 10.7446 128.967 11.9843C126.293 13.6075 123.626 15.2233 120.92 16.8614C120.537 14.8546 121.7 12.3629 123.777 11.3607V11.3583Z" fill="url(#paint5_linear_6952_45632)"/>
<path d="M66.6102 7.49814L57.7623 25.4723L48.8428 7.50804L49.4947 7.39422C49.7836 7.34226 50.0627 7.29277 50.3442 7.24576L51.2924 7.08987C51.9172 6.98594 52.5395 6.88449 53.1618 6.77561C53.2285 6.76572 53.2927 6.75829 53.3445 6.75829C53.6705 6.75829 53.8014 6.98099 53.873 7.15173C54.9299 9.65089 55.9967 12.1525 57.0635 14.6492L57.7598 16.2823L61.8492 6.70386L66.6127 7.50062L66.6102 7.49814Z" fill="url(#paint6_linear_6952_45632)"/>
<path d="M4.33876 8.78485V11.9892H10.8506L9.42576 16.0299C7.73174 16.0497 6.0476 16.0695 4.34617 16.0968V16.1512C4.35358 18.1579 4.35359 20.1672 4.35852 22.1739C4.35852 22.9039 4.36593 23.6413 4.36593 24.3712V25.0344H0V8.38647C0 4.86043 2.85712 2 6.37603 2H11.2556V2.00495H15.4709L14.1967 5.64234H7.46998C5.73892 5.64234 4.33876 7.05028 4.33876 8.78485Z" fill="url(#paint7_linear_6952_45632)"/>
<defs>
<linearGradient id="paint0_linear_6952_45632" x1="90.8748" y1="79.1895" x2="-14.8295" y2="-13.5499" gradientUnits="userSpaceOnUse">
<stop stop-color="#FF2FC1"/>
<stop offset="0.53" stop-color="#744DF1"/>
<stop offset="1" stop-color="#000055"/>
</linearGradient>
<linearGradient id="paint1_linear_6952_45632" x1="98.9666" y1="69.9697" x2="-6.74012" y2="-22.7722" gradientUnits="userSpaceOnUse">
<stop stop-color="#FF2FC1"/>
<stop offset="0.53" stop-color="#744DF1"/>
<stop offset="1" stop-color="#000055"/>
</linearGradient>
<linearGradient id="paint2_linear_6952_45632" x1="129.173" y1="35.5406" x2="23.4658" y2="-57.1988" gradientUnits="userSpaceOnUse">
<stop stop-color="#FF2FC1"/>
<stop offset="0.53" stop-color="#744DF1"/>
<stop offset="1" stop-color="#000055"/>
</linearGradient>
<linearGradient id="paint3_linear_6952_45632" x1="122.945" y1="42.6374" x2="17.2407" y2="-50.1019" gradientUnits="userSpaceOnUse">
<stop stop-color="#FF2FC1"/>
<stop offset="0.53" stop-color="#744DF1"/>
<stop offset="1" stop-color="#000055"/>
</linearGradient>
<linearGradient id="paint4_linear_6952_45632" x1="115.146" y1="51.5254" x2="9.44209" y2="-41.2141" gradientUnits="userSpaceOnUse">
<stop stop-color="#FF2FC1"/>
<stop offset="0.53" stop-color="#744DF1"/>
<stop offset="1" stop-color="#000055"/>
</linearGradient>
<linearGradient id="paint5_linear_6952_45632" x1="137.252" y1="26.331" x2="31.5457" y2="-66.4084" gradientUnits="userSpaceOnUse">
<stop stop-color="#FF2FC1"/>
<stop offset="0.53" stop-color="#744DF1"/>
<stop offset="1" stop-color="#000055"/>
</linearGradient>
<linearGradient id="paint6_linear_6952_45632" x1="109.4" y1="58.0777" x2="3.69351" y2="-34.664" gradientUnits="userSpaceOnUse">
<stop stop-color="#FF2FC1"/>
<stop offset="0.53" stop-color="#744DF1"/>
<stop offset="1" stop-color="#000055"/>
</linearGradient>
<linearGradient id="paint7_linear_6952_45632" x1="87.1309" y1="83.4603" x2="-18.5758" y2="-9.28157" gradientUnits="userSpaceOnUse">
<stop stop-color="#FF2FC1"/>
<stop offset="0.53" stop-color="#744DF1"/>
<stop offset="1" stop-color="#000055"/>
</linearGradient>
</defs>
</svg>
