<svg width="23" height="21" viewBox="0 0 23 21" fill="none" xmlns="http://www.w3.org/2000/svg">
<path d="M7.89583 9.33366C8.35607 9.33366 8.72917 8.96056 8.72917 8.50033C8.72917 8.04009 8.35607 7.66699 7.89583 7.66699C7.4356 7.66699 7.0625 8.04009 7.0625 8.50033C7.0625 8.96056 7.4356 9.33366 7.89583 9.33366Z" fill="url(#paint0_linear_6085_884)" stroke="url(#paint1_linear_6085_884)" stroke-width="0.5"/>
<path d="M13.1043 9.33366C13.5646 9.33366 13.9377 8.96056 13.9377 8.50033C13.9377 8.04009 13.5646 7.66699 13.1043 7.66699C12.6441 7.66699 12.271 8.04009 12.271 8.50033C12.271 8.96056 12.6441 9.33366 13.1043 9.33366Z" fill="url(#paint2_linear_6085_884)"/>
<path d="M14.3832 12.2711C14.3312 12.2535 14.2763 12.2463 14.2215 12.2499C14.1668 12.2536 14.1132 12.268 14.0641 12.2924C14.0149 12.3168 13.971 12.3507 13.935 12.3921C13.8989 12.4335 13.8714 12.4816 13.854 12.5337C13.5936 13.2052 13.131 13.7792 12.5301 14.1763C11.9292 14.5734 11.2197 14.774 10.4999 14.7503C9.78351 14.7696 9.07869 14.567 8.48196 14.1702C7.88524 13.7734 7.42578 13.2017 7.16655 12.5337C7.14904 12.4817 7.12146 12.4336 7.08539 12.3923C7.04932 12.351 7.00547 12.3172 6.95633 12.2928C6.90719 12.2684 6.85373 12.254 6.79901 12.2503C6.74428 12.2465 6.68936 12.2536 6.63738 12.2711C6.5854 12.2887 6.53737 12.3162 6.49605 12.3523C6.45473 12.3884 6.42091 12.4322 6.39654 12.4814C6.37216 12.5305 6.3577 12.584 6.35399 12.6387C6.35027 12.6934 6.35737 12.7483 6.37488 12.8003C6.69824 13.6284 7.2662 14.3383 8.00312 14.8356C8.74004 15.3328 9.61095 15.5937 10.4999 15.5837C11.3959 15.6023 12.276 15.3454 13.0212 14.8476C13.7664 14.3498 14.3407 13.6352 14.6665 12.8003C14.6838 12.747 14.6901 12.6907 14.6851 12.6349C14.6801 12.5791 14.6639 12.5249 14.6374 12.4755C14.611 12.4261 14.5748 12.3825 14.5311 12.3474C14.4875 12.3123 14.4371 12.2864 14.3832 12.2711Z" fill="url(#paint3_linear_6085_884)" stroke="url(#paint4_linear_6085_884)" stroke-width="0.5"/>
<path d="M10.5 2.25C8.76942 2.25 7.07769 2.76318 5.63876 3.72464C4.19983 4.6861 3.07832 6.05267 2.41606 7.65152C1.75379 9.25037 1.58051 11.0097 1.91813 12.707C2.25575 14.4044 3.08911 15.9635 4.31282 17.1872C5.53653 18.4109 7.09563 19.2443 8.79296 19.5819C10.4903 19.9195 12.2496 19.7462 13.8485 19.0839C15.4473 18.4217 16.8139 17.3002 17.7754 15.8612C18.7368 14.4223 19.25 12.7306 19.25 11C19.25 8.67936 18.3281 6.45376 16.6872 4.81282C15.0462 3.17187 12.8206 2.25 10.5 2.25ZM10.5 18.9167C8.93424 18.9167 7.40363 18.4524 6.10174 17.5825C4.79985 16.7126 3.78515 15.4762 3.18596 14.0296C2.58676 12.583 2.42999 10.9912 2.73545 9.45553C3.04092 7.91985 3.79491 6.50924 4.90208 5.40207C6.00924 4.29491 7.41986 3.54092 8.95554 3.23545C10.4912 2.92998 12.083 3.08676 13.5296 3.68595C14.9762 4.28515 16.2126 5.29985 17.0825 6.60174C17.9524 7.90362 18.4167 9.43423 18.4167 11C18.4167 13.0996 17.5826 15.1133 16.0979 16.5979C14.6133 18.0826 12.5996 18.9167 10.5 18.9167Z" fill="url(#paint5_linear_6085_884)" stroke="url(#paint6_linear_6085_884)" stroke-width="0.5"/>
<path d="M10.5 6C10.5 3.23858 12.7386 1 15.5 1C18.2614 1 20.5 3.23858 20.5 6C20.5 8.76142 18.2614 11 15.5 11C12.7386 11 10.5 8.76142 10.5 6Z" fill="#F7ECFC"/>
<path d="M13.5 6H19.5" stroke="url(#paint7_linear_6085_884)" stroke-width="1.2" stroke-linecap="round" stroke-linejoin="round"/>
<path d="M16.5 9V3" stroke="url(#paint8_linear_6085_884)" stroke-width="1.2" stroke-linecap="round" stroke-linejoin="round"/>
<defs>
<linearGradient id="paint0_linear_6085_884" x1="9.24028" y1="9.21111" x2="7.19229" y2="7.09933" gradientUnits="userSpaceOnUse">
<stop stop-color="#FF2FC1"/>
<stop offset="0.603591" stop-color="#744DF1"/>
<stop offset="1" stop-color="#000055"/>
</linearGradient>
<linearGradient id="paint1_linear_6085_884" x1="9.24028" y1="9.21111" x2="7.19229" y2="7.09933" gradientUnits="userSpaceOnUse">
<stop stop-color="#FF2FC1"/>
<stop offset="0.603591" stop-color="#744DF1"/>
<stop offset="1" stop-color="#000055"/>
</linearGradient>
<linearGradient id="paint2_linear_6085_884" x1="14.4488" y1="9.21111" x2="12.4008" y2="7.09933" gradientUnits="userSpaceOnUse">
<stop stop-color="#FF2FC1"/>
<stop offset="0.603591" stop-color="#744DF1"/>
<stop offset="1" stop-color="#000055"/>
</linearGradient>
<linearGradient id="paint3_linear_6085_884" x1="17.2424" y1="15.3393" x2="14.4758" y2="8.2119" gradientUnits="userSpaceOnUse">
<stop stop-color="#FF2FC1"/>
<stop offset="0.603591" stop-color="#744DF1"/>
<stop offset="1" stop-color="#000055"/>
</linearGradient>
<linearGradient id="paint4_linear_6085_884" x1="17.2424" y1="15.3393" x2="14.4758" y2="8.2119" gradientUnits="userSpaceOnUse">
<stop stop-color="#FF2FC1"/>
<stop offset="0.603591" stop-color="#744DF1"/>
<stop offset="1" stop-color="#000055"/>
</linearGradient>
<linearGradient id="paint5_linear_6085_884" x1="24.6167" y1="18.4632" x2="3.11281" y2="-3.71048" gradientUnits="userSpaceOnUse">
<stop stop-color="#FF2FC1"/>
<stop offset="0.603591" stop-color="#744DF1"/>
<stop offset="1" stop-color="#000055"/>
</linearGradient>
<linearGradient id="paint6_linear_6085_884" x1="24.6167" y1="18.4632" x2="3.11281" y2="-3.71048" gradientUnits="userSpaceOnUse">
<stop stop-color="#FF2FC1"/>
<stop offset="0.603591" stop-color="#744DF1"/>
<stop offset="1" stop-color="#000055"/>
</linearGradient>
<linearGradient id="paint7_linear_6085_884" x1="21.34" y1="6.92647" x2="20.9527" y2="4.53033" gradientUnits="userSpaceOnUse">
<stop stop-color="#FF2FC1"/>
<stop offset="0.603591" stop-color="#744DF1"/>
<stop offset="1" stop-color="#000055"/>
</linearGradient>
<linearGradient id="paint8_linear_6085_884" x1="17.8067" y1="8.55882" x2="15.3441" y2="8.13561" gradientUnits="userSpaceOnUse">
<stop stop-color="#FF2FC1"/>
<stop offset="0.603591" stop-color="#744DF1"/>
<stop offset="1" stop-color="#000055"/>
</linearGradient>
</defs>
</svg>
