<svg width="70" height="70" viewBox="0 0 70 70" fill="none" xmlns="http://www.w3.org/2000/svg">
<path d="M70 35C70 44.7611 65.8778 54.1528 58.6833 60.7639C52.2083 66.7139 43.7889 70 35 70C26.2111 70 17.7917 66.7139 11.3167 60.7639C4.12222 54.1528 0 44.7611 0 35C0 15.6917 15.6917 0 35 0C54.3083 0 70 15.6917 70 35Z" fill="#DEE2E6"/>
<path d="M59.3055 58.3335V59.3251C59.3055 59.8696 59.0721 60.3946 58.6832 60.764C52.2082 66.714 43.7888 70.0001 34.9999 70.0001C26.211 70.0001 17.7916 66.714 11.3166 60.764C10.9277 60.3946 10.6943 59.8696 10.6943 59.3251V58.3335C10.6943 48.689 18.5499 40.8334 28.1943 40.8334H41.8054C51.4499 40.8334 59.3055 48.689 59.3055 58.3335ZM23.3332 26.7168V23.839C23.3332 17.5585 27.9999 12.2307 33.9693 11.7057C37.2749 11.414 40.4443 12.5029 42.8749 14.739C44.069 15.8298 45.0228 17.1573 45.6756 18.637C46.3284 20.1167 46.6659 21.7162 46.6666 23.3335V27.2223C46.6666 30.489 45.286 33.6196 42.8749 35.8168C40.7394 37.7979 37.9323 38.8958 35.0193 38.889C34.6693 38.889 34.3193 38.8696 33.9693 38.8501C27.9999 38.3251 23.3332 32.9973 23.3332 26.7168Z" fill="white"/>
</svg>
