<svg width="24" height="24" viewBox="0 0 24 24" fill="none" xmlns="http://www.w3.org/2000/svg">
<path d="M11.4791 16.8522H9.49704L9.83345 22.5H11.4791V16.8522ZM8.26407 16.8522H5.97941L6.72972 22.5H8.60047L8.26407 16.8522ZM17.6939 11.4211C17.9249 11.0396 18.0468 10.602 18.0462 10.156C18.0462 8.80372 16.9461 7.70355 15.5938 7.70355H12.7098V6.57207C13.4261 6.31805 13.9406 5.63403 13.9406 4.83178C13.9406 3.38782 12.674 2.07956 12.5295 1.93515L12.0944 1.5L11.6593 1.93515C11.5149 2.07956 10.2483 3.38782 10.2483 4.83178C10.2483 5.63403 10.7628 6.31805 11.4791 6.57207V7.70355H8.59506C7.24278 7.70355 6.14261 8.80372 6.14261 10.156C6.14211 10.602 6.26397 11.0396 6.49493 11.4211C5.36063 11.6361 4.5 12.6342 4.5 13.8301V13.8712C4.5 14.5562 4.78258 15.1761 5.23702 15.6215H18.9518C19.4062 15.1762 19.6889 14.5562 19.6889 13.8712V13.8301C19.6889 12.6342 18.8282 11.6361 17.6939 11.4211ZM15.9248 16.8522L15.5884 22.5H17.4591L18.2094 16.8522H15.9248ZM12.7098 22.5H14.3554L14.6918 16.8522H12.7098V22.5Z" fill="#BFADF9"/>
</svg>
