<svg width="26" height="20" viewBox="0 0 26 20" fill="none" xmlns="http://www.w3.org/2000/svg">
<path d="M16.5 10.875C16.5 11.5672 16.2947 12.2439 15.9101 12.8195C15.5256 13.3951 14.9789 13.8437 14.3394 14.1086C13.6999 14.3735 12.9961 14.4428 12.3172 14.3077C11.6383 14.1727 11.0146 13.8394 10.5251 13.3499C10.0356 12.8604 9.7023 12.2368 9.56725 11.5578C9.4322 10.8789 9.50151 10.1751 9.76642 9.53561C10.0313 8.89607 10.4799 8.34944 11.0555 7.96486C11.6311 7.58027 12.3078 7.375 13 7.375C13.9283 7.375 14.8185 7.74375 15.4749 8.40013C16.1313 9.0565 16.5 9.94674 16.5 10.875ZM25.25 5.625V17C25.25 17.6962 24.9734 18.3639 24.4812 18.8562C23.9889 19.3484 23.3212 19.625 22.625 19.625H3.375C2.67881 19.625 2.01113 19.3484 1.51884 18.8562C1.02656 18.3639 0.75 17.6962 0.75 17V5.625C0.75 4.92881 1.02656 4.26113 1.51884 3.76885C2.01113 3.27656 2.67881 3 3.375 3H7.995L8.4675 1.57375C8.5834 1.22453 8.80644 0.920727 9.10489 0.705524C9.40335 0.49032 9.76205 0.374667 10.13 0.375001H15.87C16.238 0.374667 16.5966 0.49032 16.8951 0.705524C17.1936 0.920727 17.4166 1.22453 17.5325 1.57375L18.005 3H22.625C23.3212 3 23.9889 3.27656 24.4812 3.76885C24.9734 4.26113 25.25 4.92881 25.25 5.625ZM18.25 10.875C18.25 9.83665 17.9421 8.82162 17.3652 7.95826C16.7883 7.0949 15.9684 6.42199 15.0091 6.02463C14.0498 5.62727 12.9942 5.52331 11.9758 5.72588C10.9574 5.92845 10.0219 6.42846 9.28769 7.16269C8.55346 7.89692 8.05345 8.83238 7.85088 9.85078C7.64831 10.8692 7.75227 11.9248 8.14963 12.8841C8.54699 13.8434 9.2199 14.6633 10.0833 15.2402C10.9466 15.8171 11.9616 16.125 13 16.125C14.3924 16.125 15.7277 15.5719 16.7123 14.5873C17.6969 13.6027 18.25 12.2674 18.25 10.875ZM21.75 7.8125C21.75 7.55291 21.673 7.29915 21.5288 7.08332C21.3846 6.86748 21.1796 6.69925 20.9398 6.59991C20.6999 6.50057 20.436 6.47458 20.1814 6.52522C19.9268 6.57586 19.693 6.70087 19.5094 6.88442C19.3259 7.06798 19.2009 7.30184 19.1502 7.55644C19.0996 7.81104 19.1256 8.07494 19.2249 8.31477C19.3242 8.5546 19.4925 8.75959 19.7083 8.9038C19.9242 9.04802 20.1779 9.125 20.4375 9.125C20.7856 9.125 21.1194 8.98672 21.3656 8.74058C21.6117 8.49444 21.75 8.1606 21.75 7.8125Z" fill="url(#paint0_linear_6477_36810)"/>
<defs>
<linearGradient id="paint0_linear_6477_36810" x1="32.7633" y1="18.2096" x2="9.94621" y2="-11.735" gradientUnits="userSpaceOnUse">
<stop stop-color="#FF2FC1"/>
<stop offset="0.603591" stop-color="#744DF1"/>
<stop offset="1" stop-color="#000055"/>
</linearGradient>
</defs>
</svg>
