<svg width="32" height="32" viewBox="0 0 32 32" fill="none" xmlns="http://www.w3.org/2000/svg">
<path d="M16.0003 29.3332C23.3641 29.3332 29.3337 23.3636 29.3337 15.9998C29.3337 8.63604 23.3641 2.6665 16.0003 2.6665C8.63653 2.6665 2.66699 8.63604 2.66699 15.9998C2.66699 23.3636 8.63653 29.3332 16.0003 29.3332Z" fill="#E9ECEF"/>
<path d="M17.4138 16L20.4805 12.9333C20.8671 12.5466 20.8671 11.9066 20.4805 11.52C20.0938 11.1333 19.4538 11.1333 19.0671 11.52L16.0005 14.5866L12.9338 11.52C12.5471 11.1333 11.9071 11.1333 11.5205 11.52C11.1338 11.9066 11.1338 12.5466 11.5205 12.9333L14.5871 16L11.5205 19.0666C11.1338 19.4533 11.1338 20.0933 11.5205 20.48C11.7205 20.68 11.9738 20.7733 12.2271 20.7733C12.4805 20.7733 12.7338 20.68 12.9338 20.48L16.0005 17.4133L19.0671 20.48C19.2671 20.68 19.5205 20.7733 19.7738 20.7733C20.0271 20.7733 20.2805 20.68 20.4805 20.48C20.8671 20.0933 20.8671 19.4533 20.4805 19.0666L17.4138 16Z" fill="#868E96"/>
</svg>
