<svg width="14" height="13" viewBox="0 0 14 13" fill="none" xmlns="http://www.w3.org/2000/svg">
<path d="M12.3402 11.8737C12.0185 11.7232 11.7072 11.2251 11.4893 10.5194C12.7761 9.42459 13.5025 7.91468 13.5025 6.33731C13.5025 3.1203 10.5138 0.5 6.83498 0.5C3.59722 0.5 0.852391 2.50803 0.281632 5.28918C0.281632 5.29956 0.276443 5.30994 0.271255 5.31513C0.262607 5.34558 0.257386 5.37691 0.255688 5.40852C0.198613 5.69909 0.16748 6.01042 0.16748 6.33731C0.16748 9.51799 3.11467 12.1331 6.74677 12.1694C6.85055 12.1798 6.95432 12.1694 7.08923 12.1694C7.62885 12.1539 8.16848 12.076 8.69773 11.9411C9.82887 12.6157 11.8265 12.8336 12.0652 12.8595H12.1171C12.2349 12.8597 12.3493 12.8197 12.4413 12.746C12.5333 12.6723 12.5973 12.5693 12.6227 12.4543C12.6481 12.3392 12.6335 12.2189 12.5812 12.1133C12.5288 12.0077 12.442 11.9231 12.335 11.8737H12.3402ZM4.19392 7.17269C3.73732 7.17269 3.36373 6.7991 3.36373 6.34249C3.36373 5.88589 3.73732 5.5123 4.19392 5.5123C4.65053 5.5123 5.02412 5.88589 5.02412 6.34249C5.02412 6.7991 4.65053 7.17269 4.19392 7.17269ZM6.83498 7.17269C6.37837 7.17269 6.00479 6.7991 6.00479 6.34249C6.00479 5.88589 6.37837 5.5123 6.83498 5.5123C7.29159 5.5123 7.66517 5.88589 7.66517 6.34249C7.66517 6.7991 7.29159 7.17269 6.83498 7.17269ZM9.47085 7.17269C9.01424 7.17269 8.64065 6.7991 8.64065 6.34249C8.64065 5.88589 9.01424 5.5123 9.47085 5.5123C9.92746 5.5123 10.301 5.88589 10.301 6.34249C10.301 6.7991 9.92746 7.17269 9.47085 7.17269Z" fill="#ADB5BD"/>
</svg>
