<svg width="25" height="24" viewBox="0 0 25 24" fill="none" xmlns="http://www.w3.org/2000/svg">
<path d="M17.5 22H7.5C7.09 22 6.75 21.66 6.75 21.25C6.75 20.84 7.09 20.5 7.5 20.5H17.5C17.91 20.5 18.25 20.84 18.25 21.25C18.25 21.66 17.91 22 17.5 22Z" fill="white"/>
<path d="M20.8502 5.52004L16.8502 8.38004C16.3202 8.76004 15.5602 8.53004 15.3302 7.92004L13.4402 2.88004C13.1202 2.01004 11.8902 2.01004 11.5702 2.88004L9.67022 7.91004C9.44022 8.53004 8.69022 8.76004 8.16022 8.37004L4.16022 5.51004C3.36022 4.95004 2.30022 5.74004 2.63022 6.67004L6.79022 18.32C6.93022 18.72 7.31022 18.98 7.73022 18.98H17.2602C17.6802 18.98 18.0602 18.71 18.2002 18.32L22.3602 6.67004C22.7002 5.74004 21.6402 4.95004 20.8502 5.52004ZM15.0002 14.75H10.0002C9.59022 14.75 9.25022 14.41 9.25022 14C9.25022 13.59 9.59022 13.25 10.0002 13.25H15.0002C15.4102 13.25 15.7502 13.59 15.7502 14C15.7502 14.41 15.4102 14.75 15.0002 14.75Z" fill="white"/>
</svg>
