<svg width="22" height="22" viewBox="0 0 22 22" fill="none" xmlns="http://www.w3.org/2000/svg">
<path fill-rule="evenodd" clip-rule="evenodd" d="M5.75 2.6C4.91457 2.6 4.11335 2.93187 3.52261 3.52261C2.93187 4.11335 2.6 4.91457 2.6 5.75V16.25C2.6 17.0854 2.93187 17.8866 3.52261 18.4774C4.11335 19.0681 4.91457 19.4 5.75 19.4H16.25C17.0854 19.4 17.8866 19.0681 18.4774 18.4774C19.0681 17.8866 19.4 17.0854 19.4 16.25V9.95C19.4 9.67152 19.5106 9.40445 19.7075 9.20754C19.9044 9.01062 20.1715 8.9 20.45 8.9C20.7285 8.9 20.9955 9.01062 21.1925 9.20754C21.3894 9.40445 21.5 9.67152 21.5 9.95V16.25C21.5 17.6424 20.9469 18.9777 19.9623 19.9623C18.9777 20.9469 17.6424 21.5 16.25 21.5H5.75C4.35761 21.5 3.02226 20.9469 2.03769 19.9623C1.05312 18.9777 0.5 17.6424 0.5 16.25V5.75C0.5 4.35761 1.05312 3.02226 2.03769 2.03769C3.02226 1.05312 4.35761 0.5 5.75 0.5H12.05C12.3285 0.5 12.5955 0.610625 12.7925 0.807538C12.9894 1.00445 13.1 1.27152 13.1 1.55C13.1 1.82848 12.9894 2.09555 12.7925 2.29246C12.5955 2.48938 12.3285 2.6 12.05 2.6H5.75Z" fill="#ADB5BD"/>
<path fill-rule="evenodd" clip-rule="evenodd" d="M16.4768 1.36089C17.0318 0.824055 17.7755 0.526833 18.5477 0.533307C19.3198 0.53978 20.0584 0.849431 20.6044 1.39549C21.1503 1.94156 21.4598 2.68029 21.466 3.45242C21.4723 4.22455 21.1749 4.96822 20.6379 5.52309L19.8158 6.34629C19.6189 6.54313 19.3518 6.65372 19.0734 6.65372C18.795 6.65372 18.528 6.54313 18.3311 6.34629L15.6536 3.66879C15.4567 3.47189 15.3462 3.20486 15.3462 2.92644C15.3462 2.64802 15.4567 2.38099 15.6536 2.18409L16.4768 1.36089ZM14.1689 5.15349C13.972 4.95665 13.7049 4.84606 13.4265 4.84606C13.1481 4.84606 12.8811 4.95665 12.6842 5.15349L8.00013 9.83859C7.86567 9.97299 7.77022 10.1414 7.72398 10.3258L6.83148 13.8958C6.78763 14.0717 6.79006 14.2559 6.83854 14.4306C6.88702 14.6053 6.9799 14.7644 7.10814 14.8926C7.23637 15.0207 7.39559 15.1134 7.57031 15.1618C7.74502 15.2101 7.92927 15.2124 8.10513 15.1684L11.6741 14.2759C11.8585 14.2296 12.0269 14.1342 12.1613 13.9997L16.8464 9.31569C17.0432 9.11878 17.1538 8.85176 17.1538 8.57334C17.1538 8.29492 17.0432 8.02789 16.8464 7.83099L14.1689 5.15349Z" fill="#ADB5BD"/>
</svg>
