<svg width="18" height="18" viewBox="0 0 18 18" fill="none" xmlns="http://www.w3.org/2000/svg">
<path fill-rule="evenodd" clip-rule="evenodd" d="M4.5 1.8C3.78392 1.8 3.09716 2.08446 2.59081 2.59081C2.08446 3.09716 1.8 3.78392 1.8 4.5V13.5C1.8 14.2161 2.08446 14.9028 2.59081 15.4092C3.09716 15.9155 3.78392 16.2 4.5 16.2H13.5C14.2161 16.2 14.9028 15.9155 15.4092 15.4092C15.9155 14.9028 16.2 14.2161 16.2 13.5V8.1C16.2 7.8613 16.2948 7.63239 16.4636 7.4636C16.6324 7.29482 16.8613 7.2 17.1 7.2C17.3387 7.2 17.5676 7.29482 17.7364 7.4636C17.9052 7.63239 18 7.8613 18 8.1V13.5C18 14.6935 17.5259 15.8381 16.682 16.682C15.8381 17.5259 14.6935 18 13.5 18H4.5C3.30653 18 2.16193 17.5259 1.31802 16.682C0.474106 15.8381 0 14.6935 0 13.5V4.5C0 3.30653 0.474106 2.16193 1.31802 1.31802C2.16193 0.474106 3.30653 0 4.5 0H9.9C10.1387 0 10.3676 0.0948211 10.5364 0.263604C10.7052 0.432387 10.8 0.661305 10.8 0.9C10.8 1.13869 10.7052 1.36761 10.5364 1.5364C10.3676 1.70518 10.1387 1.8 9.9 1.8H4.5Z" fill="white"/>
<path fill-rule="evenodd" clip-rule="evenodd" d="M13.6945 0.73801C14.1702 0.277866 14.8077 0.0231046 15.4696 0.0286532C16.1314 0.0342019 16.7645 0.299616 17.2324 0.767671C17.7004 1.23573 17.9656 1.86893 17.971 2.53075C17.9764 3.19258 17.7215 3.83001 17.2612 4.30561L16.5565 5.01121C16.3877 5.17993 16.1589 5.27472 15.9202 5.27472C15.6816 5.27472 15.4527 5.17993 15.2839 5.01121L12.9889 2.71621C12.8202 2.54744 12.7254 2.31856 12.7254 2.07991C12.7254 1.84126 12.8202 1.61238 12.9889 1.44361L13.6945 0.73801ZM11.7163 3.98881C11.5475 3.82009 11.3187 3.7253 11.08 3.7253C10.8414 3.7253 10.6125 3.82009 10.4437 3.98881L6.42882 8.00461C6.31357 8.11981 6.23176 8.26415 6.19212 8.42221L5.42712 11.4822C5.38953 11.633 5.39162 11.7909 5.43318 11.9406C5.47473 12.0903 5.55434 12.2268 5.66426 12.3366C5.77417 12.4464 5.91065 12.5259 6.0604 12.5673C6.21016 12.6088 6.36809 12.6107 6.51882 12.573L9.57792 11.808C9.73598 11.7684 9.88031 11.6866 9.99552 11.5713L14.0113 7.55641C14.18 7.38763 14.2748 7.15876 14.2748 6.92011C14.2748 6.68146 14.18 6.45258 14.0113 6.28381L11.7163 3.98881Z" fill="white"/>
</svg>
