<svg width="22" height="20" viewBox="0 0 22 20" fill="none" xmlns="http://www.w3.org/2000/svg">
<path d="M13.3867 1C13.7522 1.00009 14.1029 1.133 14.3506 1.38086L20.5547 7.5918C20.8133 7.85067 20.9541 8.19186 20.9541 8.55762C20.954 8.92321 20.8131 9.26375 20.5547 9.52246L11.5098 18.4678C11.1615 18.8117 10.7037 19 10.2158 19H7.00488C6.52023 19 6.06442 18.8133 5.71777 18.4746L1.44824 14.3037C1.18428 14.0391 1.04601 13.6996 1.0459 13.335C1.0459 12.9692 1.18672 12.628 1.44531 12.3691L12.4229 1.38086C12.6707 1.13308 13.0212 0.999934 13.3867 1ZM6.97656 8.00098L2.02344 12.9551L1.63281 13.3447L2.02832 13.7305L6.29004 17.8906C6.48373 18.0799 6.73614 18.1816 7.00488 18.1816H10.2158C10.4874 18.1816 10.741 18.0773 10.9346 17.8867L10.9355 17.8857L13.9141 14.9434L14.3037 14.5576L13.916 14.1689L7.3623 7.61523L6.97656 8.00098Z" fill="#ADB5BD" stroke="#ADB5BD" stroke-width="1.09091"/>
</svg>
