<svg width="20" height="4" viewBox="0 0 20 4" fill="none" xmlns="http://www.w3.org/2000/svg">
<path d="M1.75 3.5C2.7165 3.5 3.5 2.7165 3.5 1.75C3.5 0.783502 2.7165 0 1.75 0C0.783502 0 0 0.783502 0 1.75C0 2.7165 0.783502 3.5 1.75 3.5Z" fill="#868E96"/>
<path d="M9.75 3.5C10.7165 3.5 11.5 2.7165 11.5 1.75C11.5 0.783502 10.7165 0 9.75 0C8.7835 0 8 0.783502 8 1.75C8 2.7165 8.7835 3.5 9.75 3.5Z" fill="#868E96"/>
<path d="M17.75 3.5C18.7165 3.5 19.5 2.7165 19.5 1.75C19.5 0.783502 18.7165 0 17.75 0C16.7835 0 16 0.783502 16 1.75C16 2.7165 16.7835 3.5 17.75 3.5Z" fill="#868E96"/>
</svg>
