<svg width="32" height="32" viewBox="0 0 32 32" fill="none" xmlns="http://www.w3.org/2000/svg">
<path d="M15.9993 29.3334C23.3631 29.3334 29.3327 23.3639 29.3327 16.0001C29.3327 8.63628 23.3631 2.66675 15.9993 2.66675C8.63555 2.66675 2.66602 8.63628 2.66602 16.0001C2.66602 23.3639 8.63555 29.3334 15.9993 29.3334Z" fill="white" fill-opacity="0.1"/>
<path d="M15.9993 17.3334C15.2527 17.3334 14.666 16.7334 14.666 16.0001C14.666 15.2667 15.266 14.6667 15.9993 14.6667C16.7327 14.6667 17.3327 15.2667 17.3327 16.0001C17.3327 16.7334 16.746 17.3334 15.9993 17.3334Z" fill="white"/>
<path d="M21.3333 17.3334C20.5867 17.3334 20 16.7334 20 16.0001C20 15.2667 20.6 14.6667 21.3333 14.6667C22.0667 14.6667 22.6667 15.2667 22.6667 16.0001C22.6667 16.7334 22.08 17.3334 21.3333 17.3334Z" fill="white"/>
<path d="M10.6673 17.3334C9.92065 17.3334 9.33398 16.7334 9.33398 16.0001C9.33398 15.2667 9.93398 14.6667 10.6673 14.6667C11.4007 14.6667 12.0007 15.2667 12.0007 16.0001C12.0007 16.7334 11.414 17.3334 10.6673 17.3334Z" fill="white"/>
</svg>
