<svg width="13" height="12" viewBox="0 0 13 12" fill="none" xmlns="http://www.w3.org/2000/svg">
<g clip-path="url(#clip0_6085_765)">
<path d="M6.5 12C9.81371 12 12.5 9.31371 12.5 6C12.5 2.68629 9.81371 0 6.5 0C3.18629 0 0.5 2.68629 0.5 6C0.5 9.31371 3.18629 12 6.5 12Z" fill="#ADB5BD"/>
<path d="M9.44738 7.1188C9.39867 7.0438 9.32199 7 9.24116 7H3.75908C3.7191 6.9999 3.67965 7.01058 3.64385 7.0312C3.60806 7.05182 3.5769 7.08181 3.55285 7.1188C3.52853 7.15571 3.51197 7.19869 3.50451 7.24431C3.49704 7.28993 3.49887 7.33694 3.50985 7.3816C3.88447 8.923 5.11405 10 6.50012 10C7.88618 10 9.11576 8.923 9.49039 7.3816C9.51215 7.2904 9.4966 7.1938 9.44738 7.1188Z" fill="white"/>
<path d="M4.25 5.25C4.66421 5.25 5 4.91421 5 4.5C5 4.08579 4.66421 3.75 4.25 3.75C3.83579 3.75 3.5 4.08579 3.5 4.5C3.5 4.91421 3.83579 5.25 4.25 5.25Z" fill="white"/>
<path d="M8.75 5.25C9.16421 5.25 9.5 4.91421 9.5 4.5C9.5 4.08579 9.16421 3.75 8.75 3.75C8.33579 3.75 8 4.08579 8 4.5C8 4.91421 8.33579 5.25 8.75 5.25Z" fill="white"/>
</g>
<defs>
<clipPath id="clip0_6085_765">
<rect width="12" height="12" fill="white" transform="translate(0.5)"/>
</clipPath>
</defs>
</svg>
