<svg width="24" height="24" viewBox="0 0 24 24" fill="none" xmlns="http://www.w3.org/2000/svg">
<path d="M8.875 10C9.42728 10 9.875 9.55228 9.875 9C9.875 8.44772 9.42728 8 8.875 8C8.32272 8 7.875 8.44772 7.875 9C7.875 9.55228 8.32272 10 8.875 10Z" fill="url(#paint0_linear_5795_48721)" stroke="url(#paint1_linear_5795_48721)" stroke-width="0.5"/>
<path d="M15.125 10C15.6773 10 16.125 9.55228 16.125 9C16.125 8.44772 15.6773 8 15.125 8C14.5727 8 14.125 8.44772 14.125 9C14.125 9.55228 14.5727 10 15.125 10Z" fill="url(#paint2_linear_5795_48721)" stroke="url(#paint3_linear_5795_48721)" stroke-width="0.5"/>
<path d="M16.6606 13.5246C16.5983 13.5034 16.5323 13.4948 16.4666 13.4992C16.4009 13.5035 16.3367 13.5209 16.2777 13.5501C16.2187 13.5794 16.166 13.62 16.1228 13.6697C16.0795 13.7194 16.0465 13.7771 16.0256 13.8396C15.7131 14.6454 15.1579 15.3342 14.4369 15.8108C13.7158 16.2873 12.8645 16.528 12.0006 16.4996C11.141 16.5228 10.2952 16.2796 9.57914 15.8034C8.86306 15.3272 8.31172 14.6413 8.00064 13.8396C7.97963 13.7772 7.94653 13.7196 7.90325 13.67C7.85997 13.6204 7.80734 13.5798 7.74838 13.5506C7.68941 13.5213 7.62526 13.504 7.55959 13.4995C7.49392 13.4951 7.42802 13.5036 7.36564 13.5246C7.30326 13.5456 7.24563 13.5787 7.19604 13.622C7.14645 13.6653 7.10588 13.7179 7.07662 13.7769C7.04737 13.8358 7.03002 13.9 7.02557 13.9656C7.02111 14.0313 7.02963 14.0972 7.05064 14.1596C7.43867 15.1533 8.12022 16.0052 9.00453 16.6019C9.88883 17.1986 10.9339 17.5117 12.0006 17.4996C13.0758 17.522 14.1319 17.2137 15.0262 16.6163C15.9204 16.019 16.6096 15.1614 17.0006 14.1596C17.0213 14.0956 17.0289 14.0281 17.0229 13.9611C17.0169 13.8942 16.9974 13.8291 16.9657 13.7698C16.9339 13.7105 16.8905 13.6582 16.8381 13.6161C16.7857 13.574 16.7254 13.5429 16.6606 13.5246Z" fill="url(#paint4_linear_5795_48721)" stroke="url(#paint5_linear_5795_48721)" stroke-width="0.5"/>
<path d="M12 1.5C9.9233 1.5 7.89323 2.11581 6.16652 3.26957C4.4398 4.42332 3.09399 6.0632 2.29927 7.98182C1.50455 9.90045 1.29661 12.0116 1.70176 14.0484C2.1069 16.0852 3.10693 17.9562 4.57538 19.4246C6.04384 20.8931 7.91476 21.8931 9.95156 22.2982C11.9884 22.7034 14.0996 22.4955 16.0182 21.7007C17.9368 20.906 19.5767 19.5602 20.7304 17.8335C21.8842 16.1068 22.5 14.0767 22.5 12C22.5 9.21523 21.3938 6.54451 19.4246 4.57538C17.4555 2.60625 14.7848 1.5 12 1.5ZM12 21.5C10.1211 21.5 8.28435 20.9428 6.72209 19.899C5.15982 18.8551 3.94218 17.3714 3.22315 15.6355C2.50412 13.8996 2.31599 11.9895 2.68254 10.1466C3.0491 8.30382 3.95389 6.61108 5.28249 5.28249C6.61109 3.95389 8.30383 3.0491 10.1466 2.68254C11.9895 2.31598 13.8996 2.50411 15.6355 3.22314C17.3714 3.94218 18.8551 5.15982 19.899 6.72208C20.9428 8.28435 21.5 10.1211 21.5 12C21.5 14.5196 20.4991 16.9359 18.7175 18.7175C16.9359 20.4991 14.5196 21.5 12 21.5Z" fill="url(#paint6_linear_5795_48721)" stroke="url(#paint7_linear_5795_48721)" stroke-width="0.5"/>
<defs>
<linearGradient id="paint0_linear_5795_48721" x1="10.4883" y1="9.85294" x2="8.03075" y2="7.3188" gradientUnits="userSpaceOnUse">
<stop stop-color="#FF2FC1"/>
<stop offset="0.603591" stop-color="#744DF1"/>
<stop offset="1" stop-color="#000055"/>
</linearGradient>
<linearGradient id="paint1_linear_5795_48721" x1="10.4883" y1="9.85294" x2="8.03075" y2="7.3188" gradientUnits="userSpaceOnUse">
<stop stop-color="#FF2FC1"/>
<stop offset="0.603591" stop-color="#744DF1"/>
<stop offset="1" stop-color="#000055"/>
</linearGradient>
<linearGradient id="paint2_linear_5795_48721" x1="16.7383" y1="9.85294" x2="14.2808" y2="7.3188" gradientUnits="userSpaceOnUse">
<stop stop-color="#FF2FC1"/>
<stop offset="0.603591" stop-color="#744DF1"/>
<stop offset="1" stop-color="#000055"/>
</linearGradient>
<linearGradient id="paint3_linear_5795_48721" x1="16.7383" y1="9.85294" x2="14.2808" y2="7.3188" gradientUnits="userSpaceOnUse">
<stop stop-color="#FF2FC1"/>
<stop offset="0.603591" stop-color="#744DF1"/>
<stop offset="1" stop-color="#000055"/>
</linearGradient>
<linearGradient id="paint4_linear_5795_48721" x1="20.0917" y1="17.2064" x2="16.7718" y2="8.6535" gradientUnits="userSpaceOnUse">
<stop stop-color="#FF2FC1"/>
<stop offset="0.603591" stop-color="#744DF1"/>
<stop offset="1" stop-color="#000055"/>
</linearGradient>
<linearGradient id="paint5_linear_5795_48721" x1="20.0917" y1="17.2064" x2="16.7718" y2="8.6535" gradientUnits="userSpaceOnUse">
<stop stop-color="#FF2FC1"/>
<stop offset="0.603591" stop-color="#744DF1"/>
<stop offset="1" stop-color="#000055"/>
</linearGradient>
<linearGradient id="paint6_linear_5795_48721" x1="28.94" y1="20.9559" x2="3.13538" y2="-5.65257" gradientUnits="userSpaceOnUse">
<stop stop-color="#FF2FC1"/>
<stop offset="0.603591" stop-color="#744DF1"/>
<stop offset="1" stop-color="#000055"/>
</linearGradient>
<linearGradient id="paint7_linear_5795_48721" x1="28.94" y1="20.9559" x2="3.13538" y2="-5.65257" gradientUnits="userSpaceOnUse">
<stop stop-color="#FF2FC1"/>
<stop offset="0.603591" stop-color="#744DF1"/>
<stop offset="1" stop-color="#000055"/>
</linearGradient>
</defs>
</svg>
