<svg width="32" height="32" viewBox="0 0 32 32" fill="none" xmlns="http://www.w3.org/2000/svg">
<path d="M30.1168 19.0752C29.4877 18.0966 28.8589 17.153 28.2298 16.1747C28.0902 15.9651 28.0902 15.8253 28.2298 15.6157C28.8589 14.6723 29.4528 13.7286 30.0819 12.7853C30.8157 11.6672 30.4314 10.5837 29.1731 10.1296C28.1251 9.74528 27.0768 9.32608 26.0285 8.94176C25.8189 8.87168 25.7139 8.73184 25.7139 8.48736C25.679 7.3344 25.6093 6.18112 25.5392 5.06304C25.4694 3.84 24.5261 3.14112 23.3379 3.45568C22.2198 3.73504 21.1018 4.0496 20.0182 4.36416C19.7738 4.43392 19.6342 4.36416 19.4592 4.18944C18.7603 3.28064 18.0266 2.40736 17.328 1.53376C16.559 0.555519 15.3709 0.555519 14.5674 1.53376C13.8685 2.40736 13.1347 3.28096 12.4707 4.15456C12.296 4.39904 12.1213 4.43392 11.8419 4.36416C10.7587 4.0496 9.67552 3.77024 8.90656 3.56032C7.40416 3.21088 6.49568 3.80512 6.4256 5.06304C6.35584 6.216 6.28608 7.36928 6.25088 8.55744C6.25088 8.80192 6.14624 8.90656 5.93664 9.01152L2.68704 10.2694C1.56864 10.7238 1.2192 11.807 1.8832 12.8202C2.51232 13.7987 3.14112 14.7421 3.77024 15.7203C3.90976 15.9302 3.90976 16.0698 3.77024 16.3146C3.10938 17.2913 2.46861 18.2815 1.84832 19.2845C1.2544 20.2282 1.63872 21.3462 2.68672 21.7654C3.77024 22.1846 4.88832 22.6038 5.97152 23.0234C6.216 23.0934 6.28608 23.233 6.28608 23.4778C6.32096 24.5958 6.4608 25.6794 6.4608 26.7971C6.4608 27.9155 7.43904 28.9286 8.80192 28.5094C9.88512 28.16 10.9683 27.9155 12.0515 27.6006C12.2611 27.5309 12.401 27.5661 12.5408 27.7757C13.2746 28.6842 13.9734 29.5578 14.7072 30.4662C15.5107 31.4445 16.664 31.4445 17.4326 30.4662C18.1664 29.5574 18.8653 28.6838 19.599 27.7757C19.7389 27.601 19.8435 27.5309 20.0883 27.601C21.2064 27.9155 22.3245 28.1949 23.4429 28.5094C24.5958 28.824 25.5741 28.1251 25.6093 26.937C25.679 25.784 25.7488 24.6307 25.784 23.4426C25.784 23.1632 25.9235 23.0586 26.1334 22.9885C27.1991 22.596 28.259 22.1883 29.313 21.7654C30.4314 21.2064 30.7808 20.0886 30.1168 19.0752ZM21.7654 13.344L14.777 20.3328C14.6022 20.5072 14.3578 20.647 14.113 20.6819C14.0432 20.6819 13.9382 20.7171 13.8685 20.7171C13.5539 20.7171 13.2045 20.5773 12.96 20.3325L10.0947 17.4672C9.85965 17.2302 9.72776 16.9099 9.72776 16.5762C9.72776 16.2424 9.85965 15.9221 10.0947 15.6851C10.3317 15.4501 10.652 15.3182 10.9858 15.3182C11.3195 15.3182 11.6398 15.4501 11.8768 15.6851L13.8336 17.6419L19.9136 11.5619C20.1506 11.3269 20.4708 11.195 20.8046 11.195C21.1384 11.195 21.4587 11.3269 21.6957 11.5619C22.2547 12.0512 22.2547 12.8544 21.7654 13.344Z" fill="url(#paint0_linear_5099_2896)"/>
<defs>
<linearGradient id="paint0_linear_5099_2896" x1="-4.56322" y1="-0.494983" x2="42.8868" y2="18.3015" gradientUnits="userSpaceOnUse">
<stop stop-color="#6CE0FF"/>
<stop offset="1" stop-color="#0084E8"/>
</linearGradient>
</defs>
</svg>
