<svg width="25" height="25" viewBox="0 0 25 25" fill="none" xmlns="http://www.w3.org/2000/svg">
<path d="M2.875 10.875C2.875 6.45672 6.45672 2.875 10.875 2.875H14.875C19.2933 2.875 22.875 6.45672 22.875 10.875V14.875C22.875 19.2933 19.2933 22.875 14.875 22.875H10.875C6.45672 22.875 2.875 19.2933 2.875 14.875V10.875Z" fill="url(#paint0_linear_7967_48088)"/>
<path d="M11.399 12.8515V14.7295H15.1872L14.3583 17.0977C13.3728 17.1093 12.3931 17.1209 11.4033 17.1368V17.1687C11.4076 18.3449 11.4076 19.5224 11.4105 20.6986C11.4105 21.1264 11.4148 21.5585 11.4148 21.9863V23.175H8.875V12.618C8.875 10.5514 10.5371 8.875 12.5842 8.875H15.4228V8.8779H17.875L17.1337 11.0097H13.2206C12.2135 11.0097 11.399 11.8349 11.399 12.8515Z" fill="white"/>
<defs>
<linearGradient id="paint0_linear_7967_48088" x1="29.0083" y1="21.4044" x2="4.4325" y2="-3.93697" gradientUnits="userSpaceOnUse">
<stop stop-color="#FF2FC1"/>
<stop offset="0.603591" stop-color="#744DF1"/>
<stop offset="1" stop-color="#000055"/>
</linearGradient>
</defs>
</svg>
