<svg width="32" height="32" viewBox="0 0 32 32" fill="none" xmlns="http://www.w3.org/2000/svg">
<g clip-path="url(#clip0_5287_4711)">
<g clip-path="url(#clip1_5287_4711)">
<path d="M28.2468 15.6719C28.2378 15.6913 28.2288 15.7107 28.2196 15.7301C27.8635 16.4879 26.7243 16.187 26.7944 15.3526C26.9227 13.8277 26.7341 12.2514 26.1846 10.7166C24.4011 5.73444 18.4131 0.0616253 13.1105 6.27852e-05C12.5443 -0.00649971 12.2191 0.64175 12.5533 1.09888C12.9989 1.70825 13.3607 2.39519 13.6169 3.14869C14.4578 5.62213 13.9401 8.2555 12.4595 10.212C11.8423 11.0276 10.5316 10.6248 10.5101 9.60219L10.5096 9.57994C10.5009 9.03781 10.5899 8.51731 10.7605 8.03525C10.8358 7.82269 10.6387 7.6135 10.4228 7.67856C7.41675 8.58463 5.13094 13.0081 5.13094 16.1633C5.13094 16.3938 5.14375 16.6212 5.16757 16.8453C5.17059 17.2762 5.24556 17.7036 5.38938 18.1098L5.40544 18.1549C5.45161 18.2831 5.50012 18.4104 5.55094 18.5368C4.8346 17.6615 4.23102 16.6998 3.75438 15.6742C3.53182 15.1949 2.82738 15.2901 2.74088 15.8114C2.58675 16.7397 2.50607 17.6452 2.50607 18.5061C2.50607 25.9586 8.5475 32 16 32C23.4525 32 29.4939 25.9586 29.4939 18.5061C29.4939 17.6452 29.4133 16.7396 29.2591 15.8111C29.1728 15.2911 28.4688 15.1936 28.2468 15.6719Z" fill="url(#paint0_linear_5287_4711)"/>
<path d="M5.131 16.1633C5.131 16.3938 5.14381 16.6212 5.16763 16.8453C5.17065 17.2762 5.24562 17.7036 5.38944 18.1098L5.4055 18.1549C5.45167 18.283 5.50018 18.4103 5.551 18.5367C4.83466 17.6615 4.23109 16.6998 3.75444 15.6741C3.53188 15.1949 2.82744 15.29 2.74094 15.8113C2.58681 16.7397 2.50613 17.6452 2.50613 18.506C2.50606 25.9586 8.5475 32 16 32C23.4525 32 29.4939 25.9586 29.4939 18.5061C29.4939 17.6452 29.4133 16.7396 29.2591 15.8111C29.1727 15.2911 28.4687 15.1936 28.2468 15.6719C28.2378 15.6913 28.2287 15.7107 28.2196 15.7301C27.8634 16.4879 26.7242 16.187 26.7944 15.3526C26.8239 14.9981 26.8362 14.6423 26.8311 14.2865H5.36169C5.21131 14.9357 5.131 15.5718 5.131 16.1633Z" fill="url(#paint1_linear_5287_4711)"/>
<path d="M5.131 16.1633C5.131 16.3938 5.14381 16.6212 5.16763 16.8453C5.17065 17.2762 5.24562 17.7036 5.38944 18.1098L5.4055 18.1549C5.45167 18.283 5.50018 18.4103 5.551 18.5367C4.83466 17.6615 4.23109 16.6998 3.75444 15.6741C3.53188 15.1949 2.82744 15.29 2.74094 15.8113C2.58681 16.7397 2.50613 17.6452 2.50613 18.506C2.50606 25.9586 8.5475 32 16 32C23.4525 32 29.4939 25.9586 29.4939 18.5061C29.4939 17.6452 29.4133 16.7396 29.2591 15.8111C29.1727 15.2911 28.4687 15.1936 28.2468 15.6719C28.2378 15.6913 28.2287 15.7107 28.2196 15.7301C27.8634 16.4879 26.7242 16.187 26.7944 15.3526C26.8239 14.9981 26.8362 14.6423 26.8311 14.2865H5.36169C5.21131 14.9357 5.131 15.5718 5.131 16.1633Z" fill="url(#paint2_linear_5287_4711)"/>
<path d="M29.4939 18.5061C29.4939 17.6452 29.4133 16.7396 29.2591 15.8111C29.1727 15.2911 28.4687 15.1936 28.2468 15.6719C28.2378 15.6913 28.2287 15.7107 28.2196 15.7301C27.8634 16.4879 26.7242 16.187 26.7944 15.3526C26.9226 13.8277 26.734 12.2514 26.1846 10.7166C24.4011 5.73444 18.4131 0.0616253 13.1105 6.27852e-05C12.5443 -0.00649971 12.2191 0.64175 12.5533 1.09894C12.9989 1.70831 13.3607 2.39525 13.6169 3.14875C14.4578 5.62219 13.9401 8.25556 12.4595 10.2121C12.1521 10.6182 11.6729 10.7221 11.2664 10.5979V31.1455C12.7394 31.6974 14.3343 32 16 32C23.4525 32 29.4939 25.9586 29.4939 18.5061Z" fill="url(#paint3_linear_5287_4711)"/>
<path d="M28.4656 23.6799L19.6935 14.9078L10.7401 27.7799L14.9168 31.9567C15.2742 31.9851 15.6353 32 16 32C21.6194 32 26.4359 28.5647 28.4656 23.6799Z" fill="url(#paint4_linear_5287_4711)"/>
<path d="M22.8362 20.8069C22.8312 20.8178 22.8262 20.8286 22.8211 20.8394C22.6223 21.2624 21.9864 21.0945 22.0255 20.6287C22.0971 19.7775 21.9918 18.8977 21.6851 18.0409C20.6895 15.2598 17.3469 12.0932 14.387 12.0588C14.0709 12.0551 13.8894 12.417 14.076 12.6722C14.3308 13.0213 14.531 13.4071 14.6697 13.8164C15.1391 15.1971 14.8501 16.6671 14.0236 17.7593C13.6791 18.2146 12.9475 17.9897 12.9354 17.4188L12.9352 17.4064C12.9301 17.1129 12.9775 16.8209 13.0752 16.5441C13.1172 16.4255 13.0072 16.3087 12.8867 16.345C11.2087 16.8508 9.93281 19.32 9.93281 21.0812C9.93281 21.2099 9.94 21.3368 9.95325 21.4619C9.95494 21.7025 9.99678 21.941 10.0771 22.1677L10.086 22.1929C10.1117 22.2649 10.1391 22.3357 10.1672 22.4061C9.76733 21.9175 9.43041 21.3807 9.16431 20.8082C9.04006 20.5406 8.64687 20.5938 8.59856 20.8848C8.5125 21.403 8.4675 21.9084 8.4675 22.3889C8.4675 26.549 11.8399 29.9214 15.9999 29.9214C20.16 29.9214 23.5324 26.549 23.5324 22.3889C23.5324 21.9084 23.4873 21.4029 23.4012 20.8846C23.3531 20.5944 22.9601 20.54 22.8362 20.8069Z" fill="url(#paint5_linear_5287_4711)"/>
<path d="M23.5324 22.389C23.5324 21.9084 23.4874 21.4029 23.4013 20.8847C23.3531 20.5944 22.9601 20.54 22.8363 20.8069C22.8312 20.8178 22.8262 20.8286 22.8211 20.8394C22.6223 21.2624 21.9864 21.0945 22.0255 20.6287C22.0971 19.7775 21.9918 18.8977 21.6851 18.0409C20.6895 15.2598 17.3469 12.0932 14.387 12.0588C14.0709 12.0551 13.8894 12.417 14.076 12.6722C14.3308 13.0213 14.531 13.4071 14.6697 13.8164C15.1391 15.1971 14.8501 16.6671 14.0236 17.7593C13.8521 17.9859 13.5846 18.0439 13.3577 17.9746V29.4444C14.1799 29.7525 15.0702 29.9214 16 29.9214C20.1601 29.9214 23.5324 26.549 23.5324 22.389Z" fill="url(#paint6_linear_5287_4711)"/>
<path d="M9.93281 21.0812C9.93281 21.2099 9.94 21.3368 9.95325 21.4619C9.95494 21.7025 9.99678 21.941 10.0771 22.1677L10.086 22.1929C10.1117 22.2649 10.1391 22.3357 10.1672 22.4061C9.76733 21.9175 9.43041 21.3807 9.16431 20.8082C9.04006 20.5406 8.64687 20.5938 8.59856 20.8848C8.5125 21.403 8.4675 21.9084 8.4675 22.3889C8.4675 26.549 11.8399 29.9214 15.9999 29.9214C20.16 29.9214 23.5324 26.549 23.5324 22.3889C23.5324 21.9084 23.4873 21.4029 23.4012 20.8846C23.3531 20.5943 22.9601 20.5399 22.8362 20.8069C22.8311 20.8178 22.8261 20.8286 22.821 20.8394C22.6222 21.2624 21.9863 21.0944 22.0254 20.6287C22.042 20.4316 22.0486 20.2331 22.0459 20.0336H10.0616C9.97769 20.396 9.93281 20.7511 9.93281 21.0812Z" fill="url(#paint7_linear_5287_4711)"/>
<path d="M9.93281 21.0812C9.93281 21.2099 9.94 21.3368 9.95325 21.4619C9.95494 21.7025 9.99678 21.941 10.0771 22.1677L10.086 22.1929C10.1117 22.2649 10.1391 22.3357 10.1672 22.4061C9.76733 21.9175 9.43041 21.3807 9.16431 20.8082C9.04006 20.5406 8.64687 20.5938 8.59856 20.8848C8.5125 21.403 8.4675 21.9084 8.4675 22.3889C8.4675 26.549 11.8399 29.9214 15.9999 29.9214C20.16 29.9214 23.5324 26.549 23.5324 22.3889C23.5324 21.9084 23.4873 21.4029 23.4012 20.8846C23.3531 20.5943 22.9601 20.5399 22.8362 20.8069C22.8311 20.8178 22.8261 20.8286 22.821 20.8394C22.6222 21.2624 21.9863 21.0944 22.0254 20.6287C22.042 20.4316 22.0486 20.2331 22.0459 20.0336H10.0616C9.97769 20.396 9.93281 20.7511 9.93281 21.0812Z" fill="url(#paint8_linear_5287_4711)"/>
<path d="M3.94863 11.2078C4.93594 11.4103 5.72269 10.3949 5.32856 9.46725C5.034 8.774 5.08025 7.95113 5.52456 7.27413L5.52675 7.27075C5.63906 7.10025 5.54938 6.87075 5.35019 6.82588C4.42981 6.61856 3.43681 6.98581 2.88856 7.82113C2.18206 8.89763 2.482 10.3431 3.5585 11.0496C3.67906 11.1286 3.81063 11.1794 3.94863 11.2078Z" fill="url(#paint9_linear_5287_4711)"/>
<path d="M3.94863 11.2078C4.93594 11.4103 5.72269 10.3949 5.32856 9.46725C5.034 8.774 5.08025 7.95113 5.52456 7.27413L5.52675 7.27075C5.63906 7.10025 5.54938 6.87075 5.35019 6.82588C4.42981 6.61856 3.43681 6.98581 2.88856 7.82113C2.18206 8.89763 2.482 10.3431 3.5585 11.0496C3.67906 11.1286 3.81063 11.1794 3.94863 11.2078Z" fill="url(#paint10_linear_5287_4711)"/>
<path d="M3.94863 11.2078C4.93594 11.4103 5.72269 10.3949 5.32856 9.46725C5.034 8.774 5.08025 7.95113 5.52456 7.27413L5.52675 7.27075C5.63906 7.10025 5.54938 6.87075 5.35019 6.82588C4.42981 6.61856 3.43681 6.98581 2.88856 7.82113C2.18206 8.89763 2.482 10.3431 3.5585 11.0496C3.67906 11.1286 3.81063 11.1794 3.94863 11.2078Z" fill="url(#paint11_linear_5287_4711)"/>
</g>
</g>
<defs>
<linearGradient id="paint0_linear_5287_4711" x1="9.0085" y1="11.0361" x2="22.207" y2="24.2346" gradientUnits="userSpaceOnUse">
<stop stop-color="#FFA1AE"/>
<stop offset="1" stop-color="#FF4565"/>
</linearGradient>
<linearGradient id="paint1_linear_5287_4711" x1="19.0067" y1="23.3063" x2="23.6849" y2="28.9647" gradientUnits="userSpaceOnUse">
<stop stop-color="#FE0364" stop-opacity="0"/>
<stop offset="0.234" stop-color="#F90362" stop-opacity="0.234"/>
<stop offset="0.517" stop-color="#EA035B" stop-opacity="0.517"/>
<stop offset="0.824" stop-color="#D20250" stop-opacity="0.824"/>
<stop offset="1" stop-color="#C00148"/>
</linearGradient>
<linearGradient id="paint2_linear_5287_4711" x1="15.5761" y1="23.0789" x2="14.7296" y2="32.2571" gradientUnits="userSpaceOnUse">
<stop stop-color="#FE0364" stop-opacity="0"/>
<stop offset="0.234" stop-color="#F90362" stop-opacity="0.234"/>
<stop offset="0.517" stop-color="#EA035B" stop-opacity="0.517"/>
<stop offset="0.824" stop-color="#D20250" stop-opacity="0.824"/>
<stop offset="1" stop-color="#C00148"/>
</linearGradient>
<linearGradient id="paint3_linear_5287_4711" x1="19.3118" y1="14.4619" x2="27.688" y2="10.6302" gradientUnits="userSpaceOnUse">
<stop stop-color="#FE0364" stop-opacity="0"/>
<stop offset="0.234" stop-color="#F90362" stop-opacity="0.234"/>
<stop offset="0.517" stop-color="#EA035B" stop-opacity="0.517"/>
<stop offset="0.824" stop-color="#D20250" stop-opacity="0.824"/>
<stop offset="1" stop-color="#C00148"/>
</linearGradient>
<linearGradient id="paint4_linear_5287_4711" x1="26.1423" y1="29.9641" x2="15.8948" y2="22.3898" gradientUnits="userSpaceOnUse">
<stop stop-color="#FE0364" stop-opacity="0"/>
<stop offset="0.234" stop-color="#F90362" stop-opacity="0.234"/>
<stop offset="0.517" stop-color="#EA035B" stop-opacity="0.517"/>
<stop offset="0.824" stop-color="#D20250" stop-opacity="0.824"/>
<stop offset="1" stop-color="#C00148"/>
</linearGradient>
<linearGradient id="paint5_linear_5287_4711" x1="12.9065" y1="18.6761" x2="18.9659" y2="25.7157" gradientUnits="userSpaceOnUse">
<stop stop-color="#FEF0AE"/>
<stop offset="1" stop-color="#FAC600"/>
</linearGradient>
<linearGradient id="paint6_linear_5287_4711" x1="19.4318" y1="19.7261" x2="21.4813" y2="19.0132" gradientUnits="userSpaceOnUse">
<stop stop-color="#FE9738" stop-opacity="0"/>
<stop offset="1" stop-color="#FE9738"/>
</linearGradient>
<linearGradient id="paint7_linear_5287_4711" x1="13.9084" y1="26.1907" x2="12.3936" y2="28.6561" gradientUnits="userSpaceOnUse">
<stop stop-color="#FE9738" stop-opacity="0"/>
<stop offset="1" stop-color="#FE9738"/>
</linearGradient>
<linearGradient id="paint8_linear_5287_4711" x1="17.8041" y1="26.4396" x2="18.9922" y2="28.9643" gradientUnits="userSpaceOnUse">
<stop stop-color="#FE9738" stop-opacity="0"/>
<stop offset="1" stop-color="#FE9738"/>
</linearGradient>
<linearGradient id="paint9_linear_5287_4711" x1="3.17494" y1="7.85394" x2="5.93731" y2="10.1708" gradientUnits="userSpaceOnUse">
<stop stop-color="#FFA1AE"/>
<stop offset="1" stop-color="#FF4565"/>
</linearGradient>
<linearGradient id="paint10_linear_5287_4711" x1="3.91081" y1="9.58819" x2="3.287" y2="11.2144" gradientUnits="userSpaceOnUse">
<stop stop-color="#FE0364" stop-opacity="0"/>
<stop offset="0.234" stop-color="#F90362" stop-opacity="0.234"/>
<stop offset="0.517" stop-color="#EA035B" stop-opacity="0.517"/>
<stop offset="0.824" stop-color="#D20250" stop-opacity="0.824"/>
<stop offset="1" stop-color="#C00148"/>
</linearGradient>
<linearGradient id="paint11_linear_5287_4711" x1="3.89481" y1="8.79494" x2="5.922" y2="9.39644" gradientUnits="userSpaceOnUse">
<stop stop-color="#FE0364" stop-opacity="0"/>
<stop offset="0.234" stop-color="#F90362" stop-opacity="0.234"/>
<stop offset="0.517" stop-color="#EA035B" stop-opacity="0.517"/>
<stop offset="0.824" stop-color="#D20250" stop-opacity="0.824"/>
<stop offset="1" stop-color="#C00148"/>
</linearGradient>
<clipPath id="clip0_5287_4711">
<rect width="32" height="32" fill="white"/>
</clipPath>
<clipPath id="clip1_5287_4711">
<rect width="32" height="32" fill="white"/>
</clipPath>
</defs>
</svg>
