<svg width="32" height="32" viewBox="0 0 32 32" fill="none" xmlns="http://www.w3.org/2000/svg">
<path d="M16.7163 27.5266L22.4532 29.3227C23.9873 29.803 25.5502 28.6675 25.5675 27.06L25.6322 21.0489C25.6374 20.5601 25.7919 20.0847 26.075 19.6862L29.5559 14.7851C30.4867 13.4745 29.8898 11.6372 28.3664 11.1241L22.6695 9.20507C22.2063 9.04902 21.8018 8.75515 21.5103 8.36282L17.9247 3.53777C16.966 2.24754 15.0341 2.24754 14.0753 3.53777L10.4897 8.36282C10.1982 8.75515 9.79373 9.04902 9.33053 9.20507L3.63363 11.1241C2.11021 11.6373 1.51325 13.4745 2.44409 14.7851L5.92504 19.6862C6.20811 20.0846 6.3626 20.5601 6.36781 21.0489L6.43248 27.06C6.44979 28.6675 8.01267 29.803 9.54679 29.3227L15.2837 27.5266C15.7501 27.3806 16.2499 27.3806 16.7163 27.5266Z" fill="url(#paint0_linear_5472_109909)"/>
<path d="M2.23953 12.3552C1.8794 13.1051 1.9089 14.0318 2.44388 14.785L5.92483 19.6861C6.2079 20.0846 6.36239 20.5601 6.3676 21.0488L6.43227 27.06C6.44958 28.6673 8.01246 29.8029 9.54658 29.3226L15.2835 27.5265C15.75 27.3805 16.2499 27.3805 16.7164 27.5265L22.4533 29.3226C23.9874 29.8029 25.5503 28.6674 25.5676 27.06L25.6323 21.0488C25.6348 20.8134 25.6727 20.5813 25.7423 20.3591L2.23953 12.3552Z" fill="url(#paint1_linear_5472_109909)"/>
<path d="M29.7607 12.3552C30.1208 13.1051 30.0913 14.0318 29.5563 14.785L26.0754 19.6861C25.7923 20.0846 25.6378 20.5601 25.6326 21.0488L25.5679 27.06C25.5506 28.6673 23.9877 29.8029 22.4536 29.3226L16.7167 27.5265C16.2502 27.3805 15.7503 27.3805 15.2838 27.5265L9.54691 29.3226C8.01279 29.8029 6.44991 28.6674 6.4326 27.06L6.36793 21.0488C6.36516 20.8148 6.3281 20.5824 6.25793 20.3591L29.7607 12.3552Z" fill="url(#paint2_linear_5472_109909)"/>
<path d="M28.3662 11.124L22.6693 9.205C22.2061 9.04894 21.8017 8.75507 21.5101 8.36275L17.9246 3.53769C17.4452 2.89253 16.7225 2.57 15.9999 2.57V27.4171C16.2415 27.4171 16.4832 27.4536 16.7164 27.5266L22.4533 29.3227C23.9874 29.803 25.5503 28.6675 25.5676 27.06L25.6323 21.0489C25.6375 20.5602 25.792 20.0847 26.075 19.6862L29.556 14.7851C30.4866 13.4745 29.8897 11.6372 28.3662 11.124Z" fill="url(#paint3_linear_5472_109909)"/>
<path d="M28.3662 11.124L22.6693 9.205C22.2061 9.04894 21.8017 8.75507 21.5101 8.36275L17.9246 3.53769C17.4452 2.89253 16.7225 2.57 15.9999 2.57V27.4171C16.2415 27.4171 16.4832 27.4536 16.7164 27.5266L22.4533 29.3227C23.9874 29.803 25.5503 28.6675 25.5676 27.06L25.6323 21.0489C25.6375 20.5602 25.792 20.0847 26.075 19.6862L29.556 14.7851C30.4866 13.4745 29.8897 11.6372 28.3662 11.124Z" fill="url(#paint4_linear_5472_109909)"/>
<path d="M6.26826 20.3967C6.33127 20.6085 6.36472 20.8279 6.36764 21.0489L6.43232 27.06C6.44962 28.6674 8.0125 29.803 9.54662 29.3227L15.2835 27.5266C15.75 27.3806 16.2499 27.3806 16.7164 27.5266L22.4533 29.3227C23.9874 29.803 25.5503 28.6675 25.5676 27.06L25.6323 21.0489C25.6347 20.8266 25.6695 20.6074 25.7317 20.3967H6.26826Z" fill="url(#paint5_linear_5472_109909)"/>
<path d="M16.412 22.632L19.7125 23.6652C20.595 23.9415 21.4941 23.2882 21.5041 22.3635L21.5413 18.9054C21.5444 18.6242 21.6332 18.3507 21.796 18.1214L23.7986 15.3018C24.3341 14.5478 23.9906 13.4908 23.1142 13.1956L19.8368 12.0916C19.5703 12.0018 19.3376 11.8328 19.1699 11.6071L17.1071 8.8312C16.5555 8.08889 15.4441 8.08889 14.8925 8.8312L12.8298 11.6071C12.662 11.8328 12.4293 12.0018 12.1628 12.0916L8.88539 13.1956C8.00898 13.4908 7.66551 14.5478 8.20105 15.3018L10.2036 18.1214C10.3665 18.3506 10.4553 18.6242 10.4583 18.9054L10.4955 22.3635C10.5055 23.2882 11.4046 23.9415 12.2871 23.6652L15.5876 22.632C15.856 22.548 16.1436 22.548 16.412 22.632Z" fill="url(#paint6_linear_5472_109909)"/>
<defs>
<linearGradient id="paint0_linear_5472_109909" x1="11.5513" y1="13.5502" x2="26.6499" y2="28.6489" gradientUnits="userSpaceOnUse">
<stop stop-color="#FEF0AE"/>
<stop offset="1" stop-color="#FAC600"/>
</linearGradient>
<linearGradient id="paint1_linear_5472_109909" x1="14.1059" y1="19.4629" x2="16.3109" y2="14.281" gradientUnits="userSpaceOnUse">
<stop stop-color="#FE9738" stop-opacity="0"/>
<stop offset="1" stop-color="#FE9738"/>
</linearGradient>
<linearGradient id="paint2_linear_5472_109909" x1="17.7119" y1="18.6444" x2="16.4733" y2="14.7737" gradientUnits="userSpaceOnUse">
<stop stop-color="#FE9738" stop-opacity="0"/>
<stop offset="1" stop-color="#FE9738"/>
</linearGradient>
<linearGradient id="paint3_linear_5472_109909" x1="18.1056" y1="16.0514" x2="13.4091" y2="16.2063" gradientUnits="userSpaceOnUse">
<stop stop-color="#FE9738" stop-opacity="0"/>
<stop offset="1" stop-color="#FE9738"/>
</linearGradient>
<linearGradient id="paint4_linear_5472_109909" x1="24.9728" y1="17.8266" x2="28.3906" y2="18.9292" gradientUnits="userSpaceOnUse">
<stop stop-color="#FE9738" stop-opacity="0"/>
<stop offset="1" stop-color="#FE9738"/>
</linearGradient>
<linearGradient id="paint5_linear_5472_109909" x1="15.9999" y1="24.7516" x2="15.9999" y2="29.094" gradientUnits="userSpaceOnUse">
<stop stop-color="#FE9738" stop-opacity="0"/>
<stop offset="1" stop-color="#FE9738"/>
</linearGradient>
<linearGradient id="paint6_linear_5472_109909" x1="21.1538" y1="22.3046" x2="8.01187" y2="9.16266" gradientUnits="userSpaceOnUse">
<stop stop-color="#FEF0AE"/>
<stop offset="1" stop-color="#FAC600"/>
</linearGradient>
</defs>
</svg>
