<svg width="32" height="27" viewBox="0 0 32 27" fill="none" xmlns="http://www.w3.org/2000/svg">
<path d="M16 26.602C15.4161 26.6012 14.8402 26.4651 14.3177 26.2044C12.7469 25.4183 9.67945 23.7326 6.78584 21.2751C3.0216 18.0783 0.790463 14.647 0.154299 11.0764C-0.33983 8.30265 0.365671 5.47107 2.08982 3.30766C3.68663 1.30411 5.94933 0.133339 8.46118 0.0108847C8.60885 0.00365142 8.75855 -1.90735e-06 8.90585 -1.90735e-06C11.2592 -1.90735e-06 13.4809 0.906936 15.1615 2.55386C15.4626 2.84877 15.7427 3.16434 15.9999 3.49828C16.2571 3.16432 16.5372 2.84872 16.8384 2.55379C18.519 0.907009 20.7407 7.1116e-05 23.0941 7.1116e-05C23.2414 7.1116e-05 23.3911 0.00372444 23.5388 0.0109577C26.0506 0.133412 28.3134 1.30418 29.9102 3.30788C31.6344 5.47121 32.3398 8.30279 31.8455 11.0765C31.2095 14.647 28.9783 18.0785 25.2141 21.2752C22.3205 23.7326 19.2532 25.4183 17.6822 26.2045C17.1597 26.4652 16.5839 26.6013 16 26.602Z" fill="url(#paint0_linear_5494_39120)"/>
<path d="M29.9104 3.30773C29.3118 2.55671 28.6197 1.92267 27.856 1.417C29.2502 3.48747 29.7908 6.0539 29.342 8.57262C28.706 12.1432 26.4748 15.5746 22.7105 18.7713C19.817 21.2287 16.7496 22.9144 15.1786 23.7006C14.6561 23.9614 14.0803 24.0975 13.4963 24.0982C12.9124 24.0974 12.3366 23.9613 11.8141 23.7006C10.2433 22.9145 7.17577 21.2288 4.28216 18.7713C4.1591 18.6667 4.03686 18.5612 3.91545 18.4547C4.74414 19.4127 5.70091 20.3537 6.78583 21.275C9.67943 23.7324 12.7469 25.4181 14.3177 26.2042C14.8375 26.4643 15.4192 26.6018 16 26.6018C16.5808 26.6018 17.1625 26.4644 17.6823 26.2042C19.2533 25.4181 22.3207 23.7323 25.2142 21.275C28.9784 18.0782 31.2096 14.6468 31.8457 11.0763C32.3399 8.30265 31.6345 5.47114 29.9104 3.30773Z" fill="url(#paint1_linear_5494_39120)"/>
<path d="M23.5388 0.0108847C23.3912 0.00365142 23.2415 -1.90735e-06 23.0942 -1.90735e-06C20.7407 -1.90735e-06 18.519 0.906936 16.8384 2.55371C16.5373 2.84862 16.2571 3.1642 16 3.49813V26.602C16.584 26.6012 17.1598 26.4651 17.6823 26.2044C19.2533 25.4182 22.3207 23.7324 25.2142 21.2751C28.9784 18.0783 31.2096 14.647 31.8457 11.0764C32.3399 8.30272 31.6345 5.47121 29.9103 3.3078C28.3135 1.30411 26.0507 0.133266 23.5388 0.0108847Z" fill="url(#paint2_linear_5494_39120)"/>
<defs>
<linearGradient id="paint0_linear_5494_39120" x1="13.3605" y1="6.4586" x2="24.5461" y2="20.4249" gradientUnits="userSpaceOnUse">
<stop stop-color="#FF7044"/>
<stop offset="1" stop-color="#F82814"/>
</linearGradient>
<linearGradient id="paint1_linear_5494_39120" x1="19.7845" y1="16.7101" x2="24.4163" y2="26.6095" gradientUnits="userSpaceOnUse">
<stop stop-color="#F82814" stop-opacity="0"/>
<stop offset="1" stop-color="#C0272D"/>
</linearGradient>
<linearGradient id="paint2_linear_5494_39120" x1="18.6459" y1="10.5259" x2="3.92296" y2="-4.48567" gradientUnits="userSpaceOnUse">
<stop stop-color="#F82814" stop-opacity="0"/>
<stop offset="1" stop-color="#C0272D"/>
</linearGradient>
</defs>
</svg>
