<svg width="32" height="32" viewBox="0 0 32 32" fill="none" xmlns="http://www.w3.org/2000/svg">
<g clip-path="url(#clip0_5326_7202)">
<path d="M13.8062 1H18.1938C25.2687 1 31 6.73125 31 13.8062V18.1938C31 25.2687 25.2687 31 18.1938 31H13.8062C6.73125 31 1 25.2687 1 18.1938V13.8062C1 6.73125 6.73125 1 13.8062 1Z" fill="url(#paint0_linear_5326_7202)"/>
<path d="M1 13.8062V18.1937C1 25.2687 6.73125 31 13.8062 31H18.1938C25.2687 31 31 25.2687 31 18.1937V13.8062C31 13.6687 31 13.5312 30.9937 13.3875H1.00625C1 13.525 1 13.6687 1 13.8062Z" fill="url(#paint1_linear_5326_7202)"/>
<path d="M18.1937 1H13.8062C13.3 1 12.8062 1.03125 12.3187 1.0875V30.9125C12.8062 30.9688 13.3062 31 13.8062 31H18.1937C25.2687 31 31 25.2687 31 18.1938V13.8062C31 6.73125 25.2687 1 18.1937 1Z" fill="url(#paint2_linear_5326_7202)"/>
<path d="M23.35 2.08125L2.08125 23.35C4.06875 27.8563 8.56874 31 13.8062 31H18.1937C25.2687 31 31 25.2688 31 18.1938V13.8063C31 8.56875 27.8562 4.06875 23.35 2.08125Z" fill="url(#paint3_linear_5326_7202)"/>
<path d="M23.525 22.1937C23.525 24.5875 24.4 26.7812 25.85 28.4625C28.9812 26.125 31.0062 22.4 31.0062 18.1937V13.8062C31.0062 13.475 30.9937 13.1437 30.9687 12.8187C26.7 13.8062 23.525 17.6312 23.525 22.1937Z" fill="url(#paint4_linear_5326_7202)"/>
<path d="M14.0437 2.625H17.9562C24.2625 2.625 29.375 7.7375 29.375 14.0437V17.9562C29.375 24.2625 24.2625 29.375 17.9562 29.375H14.0437C7.7375 29.375 2.625 24.2625 2.625 17.9562V14.0437C2.625 7.7375 7.7375 2.625 14.0437 2.625Z" fill="url(#paint5_linear_5326_7202)"/>
<path d="M12.675 6.125C12.5562 6.575 12.0937 6.84375 11.65 6.70625L11.3312 6.6125C9.51874 6.14375 7.71874 6.45 6.35624 7.3C6.15624 7.425 5.92499 7.18125 6.06874 6.9875C7.29999 5.29375 9.48749 4.43125 11.6437 4.98125C11.825 5.025 12 5.08125 12.1687 5.14375C12.5562 5.3 12.7812 5.71875 12.675 6.125Z" fill="url(#paint6_linear_5326_7202)"/>
<path d="M19.325 6.125C19.4438 6.575 19.9063 6.84375 20.35 6.70625L20.6688 6.6125C22.4813 6.14375 24.2812 6.45 25.6437 7.3C25.8437 7.425 26.075 7.18125 25.9313 6.9875C24.7 5.29375 22.5125 4.43125 20.3563 4.98125C20.175 5.025 20 5.08125 19.8312 5.14375C19.4437 5.3 19.2188 5.71875 19.325 6.125Z" fill="url(#paint7_linear_5326_7202)"/>
<path d="M29.375 7.55625L26.25 4.43125V11.0688H30.7062C30.4375 9.825 29.9813 8.64375 29.375 7.55625Z" fill="url(#paint8_linear_5326_7202)"/>
<path d="M7.76875 8.3625H24.2312V19.7063H7.76875V8.3625Z" fill="url(#paint9_linear_5326_7202)"/>
<path d="M7.76875 8.3625H24.2312V19.7063H7.76875V8.3625Z" fill="url(#paint10_linear_5326_7202)"/>
<path d="M26.0312 20.7687C25.1313 25.4875 20.9812 29.0562 16 29.0562C11.0188 29.0562 6.86875 25.4875 5.96875 20.7687H26.0312Z" fill="url(#paint11_linear_5326_7202)"/>
<path d="M26.0312 20.7687C25.1313 25.4875 20.9812 29.0562 16 29.0562C11.0188 29.0562 6.86875 25.4875 5.96875 20.7687H26.0312Z" fill="url(#paint12_linear_5326_7202)"/>
<path d="M26.0312 20.7687C25.1313 25.4875 20.9812 29.0562 16 29.0562C11.0188 29.0562 6.86875 25.4875 5.96875 20.7687H26.0312Z" fill="url(#paint13_linear_5326_7202)"/>
<path d="M16 22.675C18.9687 22.675 21.825 22.5 24.525 22.175C25.275 22.0813 25.8875 21.5188 26.025 20.7688C26.1437 20.1438 26.2062 19.5063 26.2062 18.8438V18.8375C26.2062 18.4063 25.825 18.0813 25.4 18.1438C22.4875 18.5938 19.3187 18.8438 16 18.8438C12.6812 18.8438 9.5125 18.5938 6.6 18.1438C6.175 18.075 5.79375 18.4063 5.79375 18.8375V18.8438C5.79375 19.5 5.85625 20.1438 5.975 20.7688C6.11875 21.5125 6.725 22.0813 7.475 22.175C10.175 22.5 13.0312 22.675 16 22.675Z" fill="url(#paint14_linear_5326_7202)"/>
<path d="M16 22.675C18.9687 22.675 21.825 22.5 24.525 22.175C25.275 22.0813 25.8875 21.5188 26.025 20.7688C26.1437 20.1438 26.2062 19.5063 26.2062 18.8438V18.8375C26.2062 18.4063 25.825 18.0813 25.4 18.1438C22.4875 18.5938 19.3187 18.8438 16 18.8438C12.6812 18.8438 9.5125 18.5938 6.6 18.1438C6.175 18.075 5.79375 18.4063 5.79375 18.8375V18.8438C5.79375 19.5 5.85625 20.1438 5.975 20.7688C6.11875 21.5125 6.725 22.0813 7.475 22.175C10.175 22.5 13.0312 22.675 16 22.675Z" fill="url(#paint15_linear_5326_7202)"/>
<path d="M16 22.675C18.9687 22.675 21.825 22.5 24.525 22.175C25.275 22.0813 25.8875 21.5188 26.025 20.7688C26.1437 20.1438 26.2062 19.5063 26.2062 18.8438V18.8375C26.2062 18.4063 25.825 18.0813 25.4 18.1438C22.4875 18.5938 19.3187 18.8438 16 18.8438C12.6812 18.8438 9.5125 18.5938 6.6 18.1438C6.175 18.075 5.79375 18.4063 5.79375 18.8375V18.8438C5.79375 19.5 5.85625 20.1438 5.975 20.7688C6.11875 21.5125 6.725 22.0813 7.475 22.175C10.175 22.5 13.0312 22.675 16 22.675Z" fill="url(#paint16_linear_5326_7202)"/>
<path d="M10.9687 18.65V22.5C9.775 22.4187 8.6125 22.3062 7.475 22.1687C6.725 22.0812 6.1125 21.5125 5.975 20.7687C5.85625 20.1437 5.79375 19.5062 5.79375 18.8437V18.8375C5.79375 18.4062 6.175 18.0812 6.6 18.1437C8 18.3625 9.4625 18.5312 10.9687 18.65Z" fill="url(#paint17_linear_5326_7202)"/>
<path d="M7.65 4.45625L9.96875 7.1C10.2437 7.4125 10.6625 7.575 11.075 7.525L14.5687 7.1125C15.6187 6.9875 16.3562 8.125 15.8125 9.03125L14.0125 12.0563C13.8 12.4188 13.775 12.8625 13.95 13.2438L15.425 16.4375C15.8687 17.4 15.0187 18.45 13.9875 18.2125L10.5562 17.4375C10.1437 17.3438 9.71875 17.4625 9.4125 17.7438L6.825 20.1313C6.05 20.85 4.7875 20.3625 4.6875 19.3125L4.36875 15.8125C4.33125 15.3938 4.0875 15.025 3.725 14.8188L0.656247 13.1C-0.268753 12.5813 -0.193753 11.2313 0.774997 10.8125L4.00625 9.425C4.39375 9.25625 4.66875 8.9125 4.75625 8.5L5.44375 5.05C5.64375 4.0125 6.95 3.6625 7.65 4.45625Z" fill="url(#paint18_linear_5326_7202)"/>
<path d="M7.89375 6.8L9.4625 8.5875C9.65 8.8 9.93125 8.90625 10.2125 8.875L12.575 8.59375C13.2875 8.5125 13.7813 9.275 13.4188 9.89375L12.2 11.9375C12.0563 12.1812 12.0375 12.4812 12.1563 12.7375L13.15 14.9C13.45 15.55 12.875 16.2625 12.175 16.1L9.85625 15.575C9.58125 15.5125 9.2875 15.5875 9.08125 15.7812L7.33125 17.3937C6.80625 17.8812 5.95 17.55 5.8875 16.8375L5.66875 14.4687C5.64375 14.1875 5.48125 13.9312 5.23125 13.7937L3.15625 12.6312C2.53125 12.2812 2.58125 11.3687 3.2375 11.0875L5.425 10.15C5.6875 10.0375 5.875 9.80625 5.93125 9.525L6.39375 7.19375C6.5375 6.5 7.41875 6.2625 7.89375 6.8Z" fill="url(#paint19_linear_5326_7202)"/>
<path d="M14.0187 12.0562C13.8062 12.4187 13.7812 12.8625 13.9562 13.2437L15.425 16.4375C15.8687 17.4 15.0187 18.45 13.9875 18.2125L10.5562 17.4375C10.35 17.3938 10.1437 17.4 9.94374 17.45L8.05624 10.4062L15.9937 8.28125C16.0125 8.53125 15.9625 8.7875 15.8187 9.03125L14.0187 12.0562Z" fill="url(#paint20_linear_5326_7202)"/>
<path d="M3.71875 14.8187C4.0875 15.025 4.325 15.3937 4.3625 15.8125L4.6875 19.3187C4.7875 20.3687 6.04375 20.8562 6.825 20.1375L9.4125 17.75C9.56875 17.6062 9.75 17.5062 9.95 17.4562L8.0625 10.4125L0.125 12.5375C0.23125 12.7625 0.40625 12.9625 0.65625 13.1L3.71875 14.8187Z" fill="url(#paint21_linear_5326_7202)"/>
<path d="M14.0187 12.0562L15.8187 9.03125C16.3562 8.125 15.625 6.9875 14.575 7.1125L11.0812 7.525C10.6625 7.575 10.25 7.4125 9.975 7.1L13.9625 13.2437C13.7812 12.8625 13.8062 12.4187 14.0187 12.0562Z" fill="url(#paint22_linear_5326_7202)"/>
<path d="M3.71875 14.8188L0.649998 13.1C-0.275002 12.5813 -0.200002 11.2313 0.768748 10.8125L4 9.425C4.3875 9.25625 4.6625 8.9125 4.75 8.5L4.36875 15.8125C4.33125 15.3938 4.0875 15.025 3.71875 14.8188Z" fill="url(#paint23_linear_5326_7202)"/>
<path d="M26.5625 5.05L27.25 8.5C27.3312 8.9125 27.6125 9.25625 28 9.425L31.2312 10.8125C32.2 11.2313 32.275 12.5813 31.35 13.1L28.2812 14.8188C27.9125 15.025 27.675 15.3938 27.6375 15.8125L27.3125 19.3188C27.2125 20.3687 25.9562 20.8563 25.175 20.1375L22.5875 17.75C22.2812 17.4625 21.85 17.35 21.4437 17.4438L18.0125 18.2188C16.9812 18.45 16.1312 17.4 16.575 16.4438L18.05 13.25C18.225 12.8687 18.2 12.425 17.9875 12.0625L16.1875 9.0375C15.65 8.13125 16.3812 6.99375 17.4312 7.11875L20.925 7.53125C21.3437 7.58125 21.7562 7.41875 22.0312 7.10625L24.35 4.4625C25.05 3.6625 26.3562 4.0125 26.5625 5.05Z" fill="url(#paint24_linear_5326_7202)"/>
<path d="M25.6 7.2L26.0625 9.53125C26.1188 9.8125 26.3063 10.0437 26.5688 10.1562L28.7563 11.0937C29.4125 11.375 29.4625 12.2875 28.8375 12.6375L26.7625 13.8C26.5125 13.9375 26.35 14.1875 26.325 14.475L26.1063 16.8437C26.0375 17.5562 25.1875 17.8812 24.6625 17.4L22.9125 15.7875C22.7063 15.5937 22.4125 15.5187 22.1375 15.5812L19.8188 16.1062C19.1188 16.2625 18.5438 15.5562 18.8438 14.9062L19.8375 12.7437C19.9563 12.4875 19.9375 12.1875 19.7938 11.9437L18.575 9.9C18.2125 9.2875 18.7063 8.51875 19.4188 8.6L21.7813 8.88125C22.0625 8.9125 22.3438 8.80625 22.5313 8.59375L24.1 6.80625C24.5813 6.2625 25.4625 6.5 25.6 7.2Z" fill="url(#paint25_linear_5326_7202)"/>
<path d="M28.2812 14.8187C27.9125 15.025 27.675 15.3937 27.6375 15.8125L27.3125 19.3187C27.2125 20.3687 25.9562 20.8562 25.175 20.1375L22.5875 17.75C22.4312 17.6062 22.25 17.5062 22.05 17.4562L23.9375 10.4125L31.875 12.5375C31.7687 12.7625 31.5937 12.9625 31.3437 13.1L28.2812 14.8187Z" fill="url(#paint26_linear_5326_7202)"/>
<path d="M17.9812 12.0562C18.1937 12.4187 18.2187 12.8625 18.0437 13.2437L16.5687 16.4375C16.125 17.4 16.975 18.45 18.0062 18.2125L21.4375 17.4375C21.6437 17.3938 21.85 17.4 22.05 17.45L23.9375 10.4062L16 8.28125C15.9812 8.53125 16.0312 8.7875 16.175 9.03125L17.9812 12.0562Z" fill="url(#paint27_linear_5326_7202)"/>
<path d="M28.2812 14.8188L31.35 13.1C32.275 12.5813 32.2 11.2313 31.2313 10.8125L28 9.425C27.6125 9.25625 27.3375 8.9125 27.25 8.5L27.6313 15.8125C27.6688 15.3938 27.9125 15.025 28.2812 14.8188Z" fill="url(#paint28_linear_5326_7202)"/>
<path d="M17.9812 12.0562L16.1812 9.03125C15.6437 8.125 16.375 6.9875 17.425 7.1125L20.9187 7.525C21.3375 7.575 21.75 7.4125 22.025 7.1L18.0375 13.2437C18.2187 12.8625 18.1937 12.4187 17.9812 12.0562Z" fill="url(#paint29_linear_5326_7202)"/>
</g>
<defs>
<linearGradient id="paint0_linear_5326_7202" x1="5.35713" y1="5.35712" x2="26.2322" y2="26.2321" gradientUnits="userSpaceOnUse">
<stop stop-color="#FEF48B"/>
<stop offset="0.165" stop-color="#FDF286"/>
<stop offset="0.335" stop-color="#FDEE7A"/>
<stop offset="0.509" stop-color="#FCE765"/>
<stop offset="0.684" stop-color="#FCDE48"/>
<stop offset="0.859" stop-color="#FBD123"/>
<stop offset="1" stop-color="#FAC600"/>
</linearGradient>
<linearGradient id="paint1_linear_5326_7202" x1="15.6144" y1="19.9382" x2="14.4188" y2="31.6547" gradientUnits="userSpaceOnUse">
<stop stop-color="#FE9738" stop-opacity="0"/>
<stop offset="0.121" stop-color="#FE9738" stop-opacity="0.016"/>
<stop offset="0.246" stop-color="#FE9738" stop-opacity="0.065"/>
<stop offset="0.373" stop-color="#FE9738" stop-opacity="0.147"/>
<stop offset="0.502" stop-color="#FE9738" stop-opacity="0.262"/>
<stop offset="0.632" stop-color="#FE9738" stop-opacity="0.41"/>
<stop offset="0.762" stop-color="#FE9738" stop-opacity="0.59"/>
<stop offset="0.892" stop-color="#FE9738" stop-opacity="0.8"/>
<stop offset="1" stop-color="#FE9738"/>
</linearGradient>
<linearGradient id="paint2_linear_5326_7202" x1="17.3456" y1="15.8068" x2="31.5329" y2="13.7346" gradientUnits="userSpaceOnUse">
<stop stop-color="#FE9738" stop-opacity="0"/>
<stop offset="0.121" stop-color="#FE9738" stop-opacity="0.016"/>
<stop offset="0.246" stop-color="#FE9738" stop-opacity="0.065"/>
<stop offset="0.373" stop-color="#FE9738" stop-opacity="0.147"/>
<stop offset="0.502" stop-color="#FE9738" stop-opacity="0.262"/>
<stop offset="0.632" stop-color="#FE9738" stop-opacity="0.41"/>
<stop offset="0.762" stop-color="#FE9738" stop-opacity="0.59"/>
<stop offset="0.892" stop-color="#FE9738" stop-opacity="0.8"/>
<stop offset="1" stop-color="#FE9738"/>
</linearGradient>
<linearGradient id="paint3_linear_5326_7202" x1="23.6093" y1="23.6093" x2="27.4419" y2="27.4419" gradientUnits="userSpaceOnUse">
<stop stop-color="#FEF48B" stop-opacity="0"/>
<stop offset="0.121" stop-color="#FEF38B" stop-opacity="0.016"/>
<stop offset="0.246" stop-color="#FEF38D" stop-opacity="0.065"/>
<stop offset="0.373" stop-color="#FEF390" stop-opacity="0.147"/>
<stop offset="0.502" stop-color="#FEF294" stop-opacity="0.262"/>
<stop offset="0.632" stop-color="#FEF299" stop-opacity="0.41"/>
<stop offset="0.762" stop-color="#FEF19F" stop-opacity="0.59"/>
<stop offset="0.892" stop-color="#FEF0A7" stop-opacity="0.8"/>
<stop offset="1" stop-color="#FEF0AE"/>
</linearGradient>
<linearGradient id="paint4_linear_5326_7202" x1="28.2188" y1="20.5059" x2="25.7683" y2="16.1396" gradientUnits="userSpaceOnUse">
<stop stop-color="#FE9738" stop-opacity="0"/>
<stop offset="0.121" stop-color="#FE9738" stop-opacity="0.016"/>
<stop offset="0.246" stop-color="#FE9738" stop-opacity="0.065"/>
<stop offset="0.373" stop-color="#FE9738" stop-opacity="0.147"/>
<stop offset="0.502" stop-color="#FE9738" stop-opacity="0.262"/>
<stop offset="0.632" stop-color="#FE9738" stop-opacity="0.41"/>
<stop offset="0.762" stop-color="#FE9738" stop-opacity="0.59"/>
<stop offset="0.892" stop-color="#FE9738" stop-opacity="0.8"/>
<stop offset="1" stop-color="#FE9738"/>
</linearGradient>
<linearGradient id="paint5_linear_5326_7202" x1="15.9093" y1="15.8699" x2="7.46069" y2="3.75494" gradientUnits="userSpaceOnUse">
<stop stop-color="#FEF48B" stop-opacity="0"/>
<stop offset="0.12" stop-color="#FEF48B" stop-opacity="0.016"/>
<stop offset="0.245" stop-color="#FEF48E" stop-opacity="0.065"/>
<stop offset="0.372" stop-color="#FEF493" stop-opacity="0.147"/>
<stop offset="0.501" stop-color="#FEF49A" stop-opacity="0.261"/>
<stop offset="0.63" stop-color="#FEF4A3" stop-opacity="0.408"/>
<stop offset="0.761" stop-color="#FEF4AD" stop-opacity="0.588"/>
<stop offset="0.89" stop-color="#FEF4BA" stop-opacity="0.797"/>
<stop offset="1" stop-color="#FFF5C6"/>
</linearGradient>
<linearGradient id="paint6_linear_5326_7202" x1="8.21211" y1="2.88075" x2="9.76699" y2="8.06838" gradientUnits="userSpaceOnUse">
<stop stop-color="#FE9738" stop-opacity="0"/>
<stop offset="0.121" stop-color="#FE9738" stop-opacity="0.016"/>
<stop offset="0.246" stop-color="#FE9738" stop-opacity="0.065"/>
<stop offset="0.373" stop-color="#FE9738" stop-opacity="0.147"/>
<stop offset="0.502" stop-color="#FE9738" stop-opacity="0.262"/>
<stop offset="0.632" stop-color="#FE9738" stop-opacity="0.41"/>
<stop offset="0.762" stop-color="#FE9738" stop-opacity="0.59"/>
<stop offset="0.892" stop-color="#FE9738" stop-opacity="0.8"/>
<stop offset="1" stop-color="#FE9738"/>
</linearGradient>
<linearGradient id="paint7_linear_5326_7202" x1="23.7658" y1="2.89151" x2="22.2109" y2="8.07908" gradientUnits="userSpaceOnUse">
<stop stop-color="#FE9738" stop-opacity="0"/>
<stop offset="0.121" stop-color="#FE9738" stop-opacity="0.016"/>
<stop offset="0.246" stop-color="#FE9738" stop-opacity="0.065"/>
<stop offset="0.373" stop-color="#FE9738" stop-opacity="0.147"/>
<stop offset="0.502" stop-color="#FE9738" stop-opacity="0.262"/>
<stop offset="0.632" stop-color="#FE9738" stop-opacity="0.41"/>
<stop offset="0.762" stop-color="#FE9738" stop-opacity="0.59"/>
<stop offset="0.892" stop-color="#FE9738" stop-opacity="0.8"/>
<stop offset="1" stop-color="#FE9738"/>
</linearGradient>
<linearGradient id="paint8_linear_5326_7202" x1="29.6076" y1="7.62944" x2="26.7561" y2="7.94131" gradientUnits="userSpaceOnUse">
<stop stop-color="#FE9738" stop-opacity="0"/>
<stop offset="0.121" stop-color="#FE9738" stop-opacity="0.016"/>
<stop offset="0.246" stop-color="#FE9738" stop-opacity="0.065"/>
<stop offset="0.373" stop-color="#FE9738" stop-opacity="0.147"/>
<stop offset="0.502" stop-color="#FE9738" stop-opacity="0.262"/>
<stop offset="0.632" stop-color="#FE9738" stop-opacity="0.41"/>
<stop offset="0.762" stop-color="#FE9738" stop-opacity="0.59"/>
<stop offset="0.892" stop-color="#FE9738" stop-opacity="0.8"/>
<stop offset="1" stop-color="#FE9738"/>
</linearGradient>
<linearGradient id="paint9_linear_5326_7202" x1="18.2983" y1="16.3123" x2="13.4864" y2="11.5449" gradientUnits="userSpaceOnUse">
<stop stop-color="#FE9738" stop-opacity="0"/>
<stop offset="0.121" stop-color="#FE9738" stop-opacity="0.016"/>
<stop offset="0.246" stop-color="#FE9738" stop-opacity="0.065"/>
<stop offset="0.373" stop-color="#FE9738" stop-opacity="0.147"/>
<stop offset="0.502" stop-color="#FE9738" stop-opacity="0.262"/>
<stop offset="0.632" stop-color="#FE9738" stop-opacity="0.41"/>
<stop offset="0.762" stop-color="#FE9738" stop-opacity="0.59"/>
<stop offset="0.892" stop-color="#FE9738" stop-opacity="0.8"/>
<stop offset="1" stop-color="#FE9738"/>
</linearGradient>
<linearGradient id="paint10_linear_5326_7202" x1="16.974" y1="13.2826" x2="18.9344" y2="11.7678" gradientUnits="userSpaceOnUse">
<stop stop-color="#FE9738" stop-opacity="0"/>
<stop offset="0.121" stop-color="#FE9738" stop-opacity="0.016"/>
<stop offset="0.246" stop-color="#FE9738" stop-opacity="0.065"/>
<stop offset="0.373" stop-color="#FE9738" stop-opacity="0.147"/>
<stop offset="0.502" stop-color="#FE9738" stop-opacity="0.262"/>
<stop offset="0.632" stop-color="#FE9738" stop-opacity="0.41"/>
<stop offset="0.762" stop-color="#FE9738" stop-opacity="0.59"/>
<stop offset="0.892" stop-color="#FE9738" stop-opacity="0.8"/>
<stop offset="1" stop-color="#FE9738"/>
</linearGradient>
<linearGradient id="paint11_linear_5326_7202" x1="15.7856" y1="20.1922" x2="18.7262" y2="29.6155" gradientUnits="userSpaceOnUse">
<stop stop-color="#CA2E43"/>
<stop offset="0.202" stop-color="#C52E41"/>
<stop offset="0.412" stop-color="#B92E3D"/>
<stop offset="0.625" stop-color="#A43037"/>
<stop offset="0.839" stop-color="#87312E"/>
<stop offset="1" stop-color="#6D3326"/>
</linearGradient>
<linearGradient id="paint12_linear_5326_7202" x1="16" y1="26.7419" x2="16" y2="22.3063" gradientUnits="userSpaceOnUse">
<stop stop-color="#6D3326" stop-opacity="0"/>
<stop offset="0.241" stop-color="#6A3124" stop-opacity="0.063"/>
<stop offset="0.492" stop-color="#622E1F" stop-opacity="0.252"/>
<stop offset="0.746" stop-color="#542816" stop-opacity="0.565"/>
<stop offset="1" stop-color="#42210B"/>
</linearGradient>
<linearGradient id="paint13_linear_5326_7202" x1="12.4735" y1="24.7079" x2="6.39181" y2="26.0445" gradientUnits="userSpaceOnUse">
<stop stop-color="#6D3326" stop-opacity="0"/>
<stop offset="0.241" stop-color="#6A3124" stop-opacity="0.063"/>
<stop offset="0.492" stop-color="#622E1F" stop-opacity="0.252"/>
<stop offset="0.746" stop-color="#542816" stop-opacity="0.565"/>
<stop offset="1" stop-color="#42210B"/>
</linearGradient>
<linearGradient id="paint14_linear_5326_7202" x1="16" y1="18.9226" x2="16" y2="22.2882" gradientUnits="userSpaceOnUse">
<stop stop-color="#F5FBFF"/>
<stop offset="0.241" stop-color="#F0F8FE"/>
<stop offset="0.492" stop-color="#E4F2FE"/>
<stop offset="0.746" stop-color="#CFE8FE"/>
<stop offset="1" stop-color="#B3DAFE"/>
</linearGradient>
<linearGradient id="paint15_linear_5326_7202" x1="16" y1="21.039" x2="16" y2="22.7326" gradientUnits="userSpaceOnUse">
<stop stop-color="#8AC9FE" stop-opacity="0"/>
<stop offset="0.129" stop-color="#89C8FD" stop-opacity="0.019"/>
<stop offset="0.263" stop-color="#88C6FB" stop-opacity="0.075"/>
<stop offset="0.399" stop-color="#87C4F8" stop-opacity="0.168"/>
<stop offset="0.536" stop-color="#85C0F4" stop-opacity="0.298"/>
<stop offset="0.675" stop-color="#83BBEF" stop-opacity="0.466"/>
<stop offset="0.815" stop-color="#7FB5E9" stop-opacity="0.672"/>
<stop offset="0.953" stop-color="#7CAEE1" stop-opacity="0.911"/>
<stop offset="1" stop-color="#7BACDF"/>
</linearGradient>
<linearGradient id="paint16_linear_5326_7202" x1="16" y1="20.3261" x2="16" y2="18.0024" gradientUnits="userSpaceOnUse">
<stop stop-color="#8AC9FE" stop-opacity="0"/>
<stop offset="0.129" stop-color="#89C8FD" stop-opacity="0.019"/>
<stop offset="0.263" stop-color="#88C6FB" stop-opacity="0.075"/>
<stop offset="0.399" stop-color="#87C4F8" stop-opacity="0.168"/>
<stop offset="0.536" stop-color="#85C0F4" stop-opacity="0.298"/>
<stop offset="0.675" stop-color="#83BBEF" stop-opacity="0.466"/>
<stop offset="0.815" stop-color="#7FB5E9" stop-opacity="0.672"/>
<stop offset="0.953" stop-color="#7CAEE1" stop-opacity="0.911"/>
<stop offset="1" stop-color="#7BACDF"/>
</linearGradient>
<linearGradient id="paint17_linear_5326_7202" x1="8.20887" y1="20.2779" x2="5.53556" y2="20.0551" gradientUnits="userSpaceOnUse">
<stop stop-color="#8AC9FE" stop-opacity="0"/>
<stop offset="0.129" stop-color="#89C8FD" stop-opacity="0.019"/>
<stop offset="0.263" stop-color="#88C6FB" stop-opacity="0.075"/>
<stop offset="0.399" stop-color="#87C4F8" stop-opacity="0.168"/>
<stop offset="0.536" stop-color="#85C0F4" stop-opacity="0.298"/>
<stop offset="0.675" stop-color="#83BBEF" stop-opacity="0.466"/>
<stop offset="0.815" stop-color="#7FB5E9" stop-opacity="0.672"/>
<stop offset="0.953" stop-color="#7CAEE1" stop-opacity="0.911"/>
<stop offset="1" stop-color="#7BACDF"/>
</linearGradient>
<linearGradient id="paint18_linear_5326_7202" x1="0.694201" y1="8.19576" x2="15.037" y2="16.4765" gradientUnits="userSpaceOnUse">
<stop stop-color="#99E6FC"/>
<stop offset="0.157" stop-color="#94E3FC"/>
<stop offset="0.32" stop-color="#88DBFC"/>
<stop offset="0.486" stop-color="#73CDFC"/>
<stop offset="0.653" stop-color="#56BAFC"/>
<stop offset="0.822" stop-color="#31A1FC"/>
<stop offset="0.99" stop-color="#0483FC"/>
<stop offset="1" stop-color="#0182FC"/>
</linearGradient>
<linearGradient id="paint19_linear_5326_7202" x1="19.6306" y1="17.9029" x2="-2.60692" y2="7.10104" gradientUnits="userSpaceOnUse">
<stop stop-color="#99E6FC"/>
<stop offset="0.157" stop-color="#94E3FC"/>
<stop offset="0.32" stop-color="#88DBFC"/>
<stop offset="0.486" stop-color="#73CDFC"/>
<stop offset="0.653" stop-color="#56BAFC"/>
<stop offset="0.822" stop-color="#31A1FC"/>
<stop offset="0.99" stop-color="#0483FC"/>
<stop offset="1" stop-color="#0182FC"/>
</linearGradient>
<linearGradient id="paint20_linear_5326_7202" x1="11.3852" y1="16.5875" x2="11.2327" y2="17.6587" gradientUnits="userSpaceOnUse">
<stop stop-color="#0172FB" stop-opacity="0"/>
<stop offset="0.121" stop-color="#0172FB" stop-opacity="0.017"/>
<stop offset="0.247" stop-color="#0172FB" stop-opacity="0.066"/>
<stop offset="0.375" stop-color="#0172FB" stop-opacity="0.149"/>
<stop offset="0.505" stop-color="#0172FB" stop-opacity="0.265"/>
<stop offset="0.635" stop-color="#0172FB" stop-opacity="0.414"/>
<stop offset="0.767" stop-color="#0172FB" stop-opacity="0.598"/>
<stop offset="0.897" stop-color="#0172FB" stop-opacity="0.81"/>
<stop offset="1" stop-color="#0172FB"/>
</linearGradient>
<linearGradient id="paint21_linear_5326_7202" x1="8.26722" y1="17.446" x2="8.93466" y2="18.2977" gradientUnits="userSpaceOnUse">
<stop stop-color="#0172FB" stop-opacity="0"/>
<stop offset="0.121" stop-color="#0172FB" stop-opacity="0.017"/>
<stop offset="0.247" stop-color="#0172FB" stop-opacity="0.066"/>
<stop offset="0.375" stop-color="#0172FB" stop-opacity="0.149"/>
<stop offset="0.505" stop-color="#0172FB" stop-opacity="0.265"/>
<stop offset="0.635" stop-color="#0172FB" stop-opacity="0.414"/>
<stop offset="0.767" stop-color="#0172FB" stop-opacity="0.598"/>
<stop offset="0.897" stop-color="#0172FB" stop-opacity="0.81"/>
<stop offset="1" stop-color="#0172FB"/>
</linearGradient>
<linearGradient id="paint22_linear_5326_7202" x1="14.0651" y1="9.85814" x2="15.0802" y2="10.502" gradientUnits="userSpaceOnUse">
<stop stop-color="#0172FB" stop-opacity="0"/>
<stop offset="0.121" stop-color="#0172FB" stop-opacity="0.017"/>
<stop offset="0.247" stop-color="#0172FB" stop-opacity="0.066"/>
<stop offset="0.375" stop-color="#0172FB" stop-opacity="0.149"/>
<stop offset="0.505" stop-color="#0172FB" stop-opacity="0.265"/>
<stop offset="0.635" stop-color="#0172FB" stop-opacity="0.414"/>
<stop offset="0.767" stop-color="#0172FB" stop-opacity="0.598"/>
<stop offset="0.897" stop-color="#0172FB" stop-opacity="0.81"/>
<stop offset="1" stop-color="#0172FB"/>
</linearGradient>
<linearGradient id="paint23_linear_5326_7202" x1="2.54934" y1="12.9601" x2="1.78356" y2="14.5116" gradientUnits="userSpaceOnUse">
<stop stop-color="#0172FB" stop-opacity="0"/>
<stop offset="0.121" stop-color="#0172FB" stop-opacity="0.017"/>
<stop offset="0.247" stop-color="#0172FB" stop-opacity="0.066"/>
<stop offset="0.375" stop-color="#0172FB" stop-opacity="0.149"/>
<stop offset="0.505" stop-color="#0172FB" stop-opacity="0.265"/>
<stop offset="0.635" stop-color="#0172FB" stop-opacity="0.414"/>
<stop offset="0.767" stop-color="#0172FB" stop-opacity="0.598"/>
<stop offset="0.897" stop-color="#0172FB" stop-opacity="0.81"/>
<stop offset="1" stop-color="#0172FB"/>
</linearGradient>
<linearGradient id="paint24_linear_5326_7202" x1="18.6671" y1="4.82705" x2="26.9479" y2="19.1698" gradientUnits="userSpaceOnUse">
<stop stop-color="#99E6FC"/>
<stop offset="0.157" stop-color="#94E3FC"/>
<stop offset="0.32" stop-color="#88DBFC"/>
<stop offset="0.486" stop-color="#73CDFC"/>
<stop offset="0.653" stop-color="#56BAFC"/>
<stop offset="0.822" stop-color="#31A1FC"/>
<stop offset="0.99" stop-color="#0483FC"/>
<stop offset="1" stop-color="#0182FC"/>
</linearGradient>
<linearGradient id="paint25_linear_5326_7202" x1="30.2128" y1="22.7019" x2="16.3556" y2="2.22843" gradientUnits="userSpaceOnUse">
<stop stop-color="#99E6FC"/>
<stop offset="0.157" stop-color="#94E3FC"/>
<stop offset="0.32" stop-color="#88DBFC"/>
<stop offset="0.486" stop-color="#73CDFC"/>
<stop offset="0.653" stop-color="#56BAFC"/>
<stop offset="0.822" stop-color="#31A1FC"/>
<stop offset="0.99" stop-color="#0483FC"/>
<stop offset="1" stop-color="#0182FC"/>
</linearGradient>
<linearGradient id="paint26_linear_5326_7202" x1="23.7299" y1="17.44" x2="23.0622" y2="18.2914" gradientUnits="userSpaceOnUse">
<stop stop-color="#0172FB" stop-opacity="0"/>
<stop offset="0.121" stop-color="#0172FB" stop-opacity="0.017"/>
<stop offset="0.247" stop-color="#0172FB" stop-opacity="0.066"/>
<stop offset="0.375" stop-color="#0172FB" stop-opacity="0.149"/>
<stop offset="0.505" stop-color="#0172FB" stop-opacity="0.265"/>
<stop offset="0.635" stop-color="#0172FB" stop-opacity="0.414"/>
<stop offset="0.767" stop-color="#0172FB" stop-opacity="0.598"/>
<stop offset="0.897" stop-color="#0172FB" stop-opacity="0.81"/>
<stop offset="1" stop-color="#0172FB"/>
</linearGradient>
<linearGradient id="paint27_linear_5326_7202" x1="20.605" y1="16.6178" x2="20.758" y2="17.689" gradientUnits="userSpaceOnUse">
<stop stop-color="#0172FB" stop-opacity="0"/>
<stop offset="0.121" stop-color="#0172FB" stop-opacity="0.017"/>
<stop offset="0.247" stop-color="#0172FB" stop-opacity="0.066"/>
<stop offset="0.375" stop-color="#0172FB" stop-opacity="0.149"/>
<stop offset="0.505" stop-color="#0172FB" stop-opacity="0.265"/>
<stop offset="0.635" stop-color="#0172FB" stop-opacity="0.414"/>
<stop offset="0.767" stop-color="#0172FB" stop-opacity="0.598"/>
<stop offset="0.897" stop-color="#0172FB" stop-opacity="0.81"/>
<stop offset="1" stop-color="#0172FB"/>
</linearGradient>
<linearGradient id="paint28_linear_5326_7202" x1="29.4154" y1="12.9521" x2="29.9726" y2="14.0173" gradientUnits="userSpaceOnUse">
<stop stop-color="#0172FB" stop-opacity="0"/>
<stop offset="0.121" stop-color="#0172FB" stop-opacity="0.017"/>
<stop offset="0.247" stop-color="#0172FB" stop-opacity="0.066"/>
<stop offset="0.375" stop-color="#0172FB" stop-opacity="0.149"/>
<stop offset="0.505" stop-color="#0172FB" stop-opacity="0.265"/>
<stop offset="0.635" stop-color="#0172FB" stop-opacity="0.414"/>
<stop offset="0.767" stop-color="#0172FB" stop-opacity="0.598"/>
<stop offset="0.897" stop-color="#0172FB" stop-opacity="0.81"/>
<stop offset="1" stop-color="#0172FB"/>
</linearGradient>
<linearGradient id="paint29_linear_5326_7202" x1="17.8914" y1="9.88068" x2="16.4525" y2="10.8414" gradientUnits="userSpaceOnUse">
<stop stop-color="#0172FB" stop-opacity="0"/>
<stop offset="0.121" stop-color="#0172FB" stop-opacity="0.017"/>
<stop offset="0.247" stop-color="#0172FB" stop-opacity="0.066"/>
<stop offset="0.375" stop-color="#0172FB" stop-opacity="0.149"/>
<stop offset="0.505" stop-color="#0172FB" stop-opacity="0.265"/>
<stop offset="0.635" stop-color="#0172FB" stop-opacity="0.414"/>
<stop offset="0.767" stop-color="#0172FB" stop-opacity="0.598"/>
<stop offset="0.897" stop-color="#0172FB" stop-opacity="0.81"/>
<stop offset="1" stop-color="#0172FB"/>
</linearGradient>
<clipPath id="clip0_5326_7202">
<rect width="32" height="32" fill="white"/>
</clipPath>
</defs>
</svg>
