<svg width="32" height="32" viewBox="0 0 32 32" fill="none" xmlns="http://www.w3.org/2000/svg">
<path d="M18.1875 31.96C16.7294 32.0137 15.2713 32.0137 13.8131 31.96C6.32876 31.685 0.315007 25.6712 0.0400073 18.1875C-0.0137427 16.7294 -0.0137427 15.2712 0.0400073 13.8131C0.315007 6.32875 6.32876 0.315 13.8125 0.0399997C15.2706 -0.0137503 16.7288 -0.0137503 18.1869 0.0399997C25.6706 0.315 31.685 6.32875 31.9594 13.8125C32.0131 15.2706 32.0131 16.7288 31.9594 18.1869C31.6844 25.6706 25.6706 31.685 18.1869 31.9594L18.1875 31.96Z" fill="url(#paint0_radial_5350_9972)"/>
<path d="M18.1875 31.96C16.7294 32.0137 15.2713 32.0137 13.8131 31.96C6.32876 31.685 0.315007 25.6712 0.0400073 18.1875C-0.0137427 16.7294 -0.0137427 15.2712 0.0400073 13.8131C0.315007 6.32875 6.32876 0.315 13.8125 0.0399997C15.2706 -0.0137503 16.7288 -0.0137503 18.1869 0.0399997C25.6706 0.315 31.685 6.32875 31.9594 13.8125C32.0131 15.2706 32.0131 16.7288 31.9594 18.1869C31.6844 25.6706 25.6706 31.685 18.1869 31.9594L18.1875 31.96Z" fill="url(#paint1_radial_5350_9972)"/>
<path d="M31.96 18.1875C32.0138 16.7294 32.0138 15.2713 31.96 13.8131C31.955 13.6831 31.9481 13.5544 31.94 13.425L29.0644 10.5494L27.9275 11.3106H14.335L2.95001 18.7331L16.2156 31.9988C16.8725 31.9963 17.5294 31.9838 18.1863 31.9594C25.67 31.6844 31.6844 25.6706 31.9588 18.1869L31.96 18.1875Z" fill="url(#paint2_linear_5350_9972)"/>
<path d="M31.96 13.8125C31.955 13.6825 31.9481 13.5538 31.94 13.4244L29.0644 10.5488L18.3219 18.7663L27.5519 27.9963C30.1544 25.505 31.8181 22.0406 31.96 18.1869C32.0137 16.7288 32.0137 15.2706 31.96 13.8125Z" fill="url(#paint3_linear_5350_9972)"/>
<path d="M5.45937 22.3525C7.14039 22.3525 8.50312 21.4898 8.50312 20.4256C8.50312 19.3614 7.14039 18.4987 5.45937 18.4987C3.77835 18.4987 2.41562 19.3614 2.41562 20.4256C2.41562 21.4898 3.77835 22.3525 5.45937 22.3525Z" fill="url(#paint4_linear_5350_9972)"/>
<path d="M26.5406 22.3525C28.2217 22.3525 29.5844 21.4898 29.5844 20.4256C29.5844 19.3614 28.2217 18.4987 26.5406 18.4987C24.8596 18.4987 23.4969 19.3614 23.4969 20.4256C23.4969 21.4898 24.8596 22.3525 26.5406 22.3525Z" fill="url(#paint5_linear_5350_9972)"/>
<path d="M20.1325 24.5788C21.845 23.78 23.29 22.66 24.4119 21.3456C25.12 20.5162 26.4375 21.4019 25.9356 22.37C24.9394 24.2906 23.3244 25.9087 21.2125 26.8937C19.1 27.8787 16.8225 28.075 14.7106 27.6044C13.6462 27.3669 13.815 25.7881 14.905 25.7787C16.6325 25.7644 18.4194 25.3775 20.1325 24.5788Z" fill="url(#paint6_linear_5350_9972)"/>
<path d="M20.1325 24.5788C21.845 23.78 23.29 22.66 24.4119 21.3456C25.12 20.5162 26.4375 21.4019 25.9356 22.37C24.9394 24.2906 23.3244 25.9087 21.2125 26.8937C19.1 27.8787 16.8225 28.075 14.7106 27.6044C13.6462 27.3669 13.815 25.7881 14.905 25.7787C16.6325 25.7644 18.4194 25.3775 20.1325 24.5788Z" fill="url(#paint7_linear_5350_9972)"/>
<path d="M10.3106 20.2363C9.79874 20.255 6.86249 20.255 6.35062 20.2363C3.72374 20.14 1.61249 18.0288 1.51562 15.4013C1.49687 14.8894 1.49687 14.3775 1.51562 13.8656C1.61187 11.2388 3.72312 9.1275 6.35062 9.03063C6.86249 9.01188 9.79874 9.01188 10.3106 9.03063C12.9375 9.12688 15.0487 11.2381 15.1456 13.8656C15.1644 14.3775 15.1644 14.8894 15.1456 15.4013C15.0494 18.0281 12.9381 20.1394 10.3106 20.2363Z" fill="url(#paint8_radial_5350_9972)"/>
<path d="M10.3106 20.2363C9.79874 20.255 6.86249 20.255 6.35062 20.2363C3.72374 20.14 1.61249 18.0288 1.51562 15.4013C1.49687 14.8894 1.49687 14.3775 1.51562 13.8656C1.61187 11.2388 3.72312 9.1275 6.35062 9.03063C6.86249 9.01188 9.79874 9.01188 10.3106 9.03063C12.9375 9.12688 15.0487 11.2381 15.1456 13.8656C15.1644 14.3775 15.1644 14.8894 15.1456 15.4013C15.0494 18.0281 12.9381 20.1394 10.3106 20.2363Z" fill="url(#paint9_radial_5350_9972)"/>
<path d="M25.6494 20.2363C25.1375 20.255 22.2013 20.255 21.6894 20.2363C19.0625 20.14 16.9513 18.0288 16.8544 15.4013C16.8356 14.8894 16.8356 14.3775 16.8544 13.8656C16.9506 11.2388 19.0619 9.1275 21.6894 9.03063C22.2013 9.01188 25.1375 9.01188 25.6494 9.03063C28.2763 9.12688 30.3875 11.2381 30.4844 13.8656C30.5031 14.3775 30.5031 14.8894 30.4844 15.4013C30.3881 18.0281 28.2769 20.1394 25.6494 20.2363Z" fill="url(#paint10_radial_5350_9972)"/>
<path d="M25.6494 20.2363C25.1375 20.255 22.2013 20.255 21.6894 20.2363C19.0625 20.14 16.9513 18.0288 16.8544 15.4013C16.8356 14.8894 16.8356 14.3775 16.8544 13.8656C16.9506 11.2388 19.0619 9.1275 21.6894 9.03063C22.2013 9.01188 25.1375 9.01188 25.6494 9.03063C28.2763 9.12688 30.3875 11.2381 30.4844 13.8656C30.5031 14.3775 30.5031 14.8894 30.4844 15.4013C30.3881 18.0281 28.2769 20.1394 25.6494 20.2363Z" fill="url(#paint11_radial_5350_9972)"/>
<path d="M13.4306 11.4137C13.4306 11.9812 13.9394 12.4081 14.5 12.3206C14.9869 12.245 15.4881 12.205 16 12.205C16.5119 12.205 17.0131 12.2444 17.5 12.3206C18.0606 12.4081 18.5694 11.9812 18.5694 11.4137C18.5694 10.9969 18.29 10.6281 17.8863 10.525C17.2831 10.3712 16.6513 10.2887 16 10.2887C15.3488 10.2887 14.7169 10.3712 14.1138 10.525C13.71 10.6281 13.4306 10.9969 13.4306 11.4137Z" fill="url(#paint12_linear_5350_9972)"/>
<path d="M13.4306 11.4137C13.4306 11.9812 13.9394 12.4081 14.5 12.3206C14.9869 12.245 15.4881 12.205 16 12.205C16.5119 12.205 17.0131 12.2444 17.5 12.3206C18.0606 12.4081 18.5694 11.9812 18.5694 11.4137C18.5694 10.9969 18.29 10.6281 17.8863 10.525C17.2831 10.3712 16.6513 10.2887 16 10.2887C15.3488 10.2887 14.7169 10.3712 14.1138 10.525C13.71 10.6281 13.4306 10.9969 13.4306 11.4137Z" fill="url(#paint13_linear_5350_9972)"/>
<path d="M17.8862 10.5256C17.2831 10.3719 16.6512 10.2894 16 10.2894C15.9512 10.2894 15.9031 10.2906 15.8544 10.2919V12.2069C16.4052 12.1982 16.9557 12.2364 17.5 12.3212C18.0606 12.4088 18.5694 11.9819 18.5694 11.4144C18.5694 10.9975 18.29 10.6288 17.8862 10.5256Z" fill="url(#paint14_linear_5350_9972)"/>
<path d="M25.6544 13.3419C24.7519 11.5644 23.2613 10.1356 21.4381 9.3125C21.2363 9.22125 21.2363 8.9325 21.4381 8.84125C23.2613 8.01813 24.7519 6.58938 25.6544 4.81188C25.7506 4.6225 26.02 4.6225 26.1163 4.81188C27.0188 6.58938 28.5094 8.01813 30.3325 8.84125C30.5344 8.9325 30.5344 9.22125 30.3325 9.3125C28.5094 10.1356 27.0188 11.5644 26.1163 13.3419C26.02 13.5313 25.7506 13.5313 25.6544 13.3419Z" fill="url(#paint15_linear_5350_9972)"/>
<path d="M3.54438 21.5087C2.92688 20.2925 1.90751 19.3156 0.660631 18.7525C0.522506 18.69 0.522506 18.4925 0.660631 18.43C1.90751 17.8669 2.92688 16.89 3.54438 15.6737C3.61001 15.5444 3.79438 15.5444 3.86001 15.6737C4.47751 16.89 5.49688 17.8669 6.74376 18.43C6.88188 18.4925 6.88188 18.69 6.74376 18.7525C5.49688 19.3156 4.47751 20.2925 3.86001 21.5087C3.79438 21.6381 3.61001 21.6381 3.54438 21.5087Z" fill="url(#paint16_linear_5350_9972)"/>
<path d="M17.2675 7.71188C16.65 6.49563 15.6306 5.51875 14.3837 4.95563C14.2456 4.89313 14.2456 4.69563 14.3837 4.63313C15.6306 4.07 16.65 3.09313 17.2675 1.87688C17.3331 1.7475 17.5175 1.7475 17.5831 1.87688C18.2006 3.09313 19.22 4.07 20.4669 4.63313C20.605 4.69563 20.605 4.89313 20.4669 4.95563C19.22 5.51875 18.2006 6.49563 17.5831 7.71188C17.5175 7.84125 17.3331 7.84125 17.2675 7.71188Z" fill="url(#paint17_linear_5350_9972)"/>
<defs>
<radialGradient id="paint0_radial_5350_9972" cx="0" cy="0" r="1" gradientUnits="userSpaceOnUse" gradientTransform="translate(10.5306 8.33) scale(21.9769 21.9769)">
<stop stop-color="#FEF0AE"/>
<stop offset="1" stop-color="#FAC600"/>
</radialGradient>
<radialGradient id="paint1_radial_5350_9972" cx="0" cy="0" r="1" gradientUnits="userSpaceOnUse" gradientTransform="translate(12.7406 13.5275) scale(20.1931)">
<stop stop-color="#FE9738" stop-opacity="0"/>
<stop offset="0.22" stop-color="#FE9738" stop-opacity="0"/>
<stop offset="0.33" stop-color="#FE9738" stop-opacity="0.04"/>
<stop offset="0.43" stop-color="#FE9738" stop-opacity="0.09"/>
<stop offset="0.5" stop-color="#FE9738" stop-opacity="0.17"/>
<stop offset="0.58" stop-color="#FE9738" stop-opacity="0.27"/>
<stop offset="0.64" stop-color="#FE9738" stop-opacity="0.39"/>
<stop offset="0.7" stop-color="#FE9738" stop-opacity="0.53"/>
<stop offset="0.76" stop-color="#FE9738" stop-opacity="0.7"/>
<stop offset="0.81" stop-color="#FE9738" stop-opacity="0.88"/>
<stop offset="0.84" stop-color="#FE9738"/>
<stop offset="0.87" stop-color="#FE9738" stop-opacity="0.99"/>
<stop offset="0.89" stop-color="#FE9738" stop-opacity="0.95"/>
<stop offset="0.91" stop-color="#FE9738" stop-opacity="0.88"/>
<stop offset="0.92" stop-color="#FE9738" stop-opacity="0.79"/>
<stop offset="0.94" stop-color="#FE9738" stop-opacity="0.66"/>
<stop offset="0.96" stop-color="#FE9738" stop-opacity="0.51"/>
<stop offset="0.98" stop-color="#FE9738" stop-opacity="0.34"/>
<stop offset="0.99" stop-color="#FE9738" stop-opacity="0.14"/>
<stop offset="1" stop-color="#FE9738" stop-opacity="0.01"/>
</radialGradient>
<linearGradient id="paint2_linear_5350_9972" x1="19.5593" y1="19.2326" x2="14.3018" y2="11.3907" gradientUnits="userSpaceOnUse">
<stop stop-color="#FE9738" stop-opacity="0"/>
<stop offset="0.1" stop-color="#FE9636" stop-opacity="0.02"/>
<stop offset="0.23" stop-color="#FE9433" stop-opacity="0.08"/>
<stop offset="0.36" stop-color="#FE912E" stop-opacity="0.17"/>
<stop offset="0.5" stop-color="#FE8D26" stop-opacity="0.31"/>
<stop offset="0.65" stop-color="#FE871D" stop-opacity="0.48"/>
<stop offset="0.81" stop-color="#FE8011" stop-opacity="0.69"/>
<stop offset="0.96" stop-color="#FE7804" stop-opacity="0.94"/>
<stop offset="1" stop-color="#FE7701"/>
</linearGradient>
<linearGradient id="paint3_linear_5350_9972" x1="28.256" y1="21.3316" x2="23.8597" y2="13.9654" gradientUnits="userSpaceOnUse">
<stop stop-color="#FE9738" stop-opacity="0"/>
<stop offset="0.1" stop-color="#FE9636" stop-opacity="0.02"/>
<stop offset="0.23" stop-color="#FE9433" stop-opacity="0.08"/>
<stop offset="0.36" stop-color="#FE912E" stop-opacity="0.17"/>
<stop offset="0.5" stop-color="#FE8D26" stop-opacity="0.31"/>
<stop offset="0.65" stop-color="#FE871D" stop-opacity="0.48"/>
<stop offset="0.81" stop-color="#FE8011" stop-opacity="0.69"/>
<stop offset="0.96" stop-color="#FE7804" stop-opacity="0.94"/>
<stop offset="1" stop-color="#FE7701"/>
</linearGradient>
<linearGradient id="paint4_linear_5350_9972" x1="3.31168" y1="15.5463" x2="7.35981" y2="24.7432" gradientUnits="userSpaceOnUse">
<stop stop-color="#FEAEE1" stop-opacity="0"/>
<stop offset="0.11" stop-color="#FEABDF" stop-opacity="0.02"/>
<stop offset="0.23" stop-color="#FEA4DC" stop-opacity="0.07"/>
<stop offset="0.36" stop-color="#FE98D7" stop-opacity="0.16"/>
<stop offset="0.5" stop-color="#FE87D0" stop-opacity="0.29"/>
<stop offset="0.64" stop-color="#FE71C7" stop-opacity="0.45"/>
<stop offset="0.79" stop-color="#FE57BB" stop-opacity="0.65"/>
<stop offset="0.93" stop-color="#FE38AE" stop-opacity="0.89"/>
<stop offset="1" stop-color="#FE2AA8"/>
</linearGradient>
<linearGradient id="paint5_linear_5350_9972" x1="24.3933" y1="15.5462" x2="28.4408" y2="24.7431" gradientUnits="userSpaceOnUse">
<stop stop-color="#FEAEE1" stop-opacity="0"/>
<stop offset="0.11" stop-color="#FEABDF" stop-opacity="0.02"/>
<stop offset="0.23" stop-color="#FEA4DC" stop-opacity="0.07"/>
<stop offset="0.36" stop-color="#FE98D7" stop-opacity="0.16"/>
<stop offset="0.5" stop-color="#FE87D0" stop-opacity="0.29"/>
<stop offset="0.64" stop-color="#FE71C7" stop-opacity="0.45"/>
<stop offset="0.79" stop-color="#FE57BB" stop-opacity="0.65"/>
<stop offset="0.93" stop-color="#FE38AE" stop-opacity="0.89"/>
<stop offset="1" stop-color="#FE2AA8"/>
</linearGradient>
<linearGradient id="paint6_linear_5350_9972" x1="21.2133" y1="26.9018" x2="19.8649" y2="24.0142" gradientUnits="userSpaceOnUse">
<stop stop-color="#7A6D79"/>
<stop offset="0.25" stop-color="#6C616C"/>
<stop offset="0.68" stop-color="#5B535B"/>
<stop offset="1" stop-color="#554E56"/>
</linearGradient>
<linearGradient id="paint7_linear_5350_9972" x1="21.0282" y1="26.5054" x2="19.5148" y2="23.2644" gradientUnits="userSpaceOnUse">
<stop stop-color="#593636" stop-opacity="0"/>
<stop offset="0.28" stop-color="#543333" stop-opacity="0.1"/>
<stop offset="0.6" stop-color="#482D2E" stop-opacity="0.4"/>
<stop offset="0.93" stop-color="#332224" stop-opacity="0.88"/>
<stop offset="1" stop-color="#2F2022"/>
</linearGradient>
<radialGradient id="paint8_radial_5350_9972" cx="0" cy="0" r="1" gradientUnits="userSpaceOnUse" gradientTransform="translate(6.39874 11.8156) scale(8.07938)">
<stop stop-color="#7A6D79"/>
<stop offset="0.25" stop-color="#6C616C"/>
<stop offset="0.68" stop-color="#5B535B"/>
<stop offset="1" stop-color="#554E56"/>
</radialGradient>
<radialGradient id="paint9_radial_5350_9972" cx="0" cy="0" r="1" gradientUnits="userSpaceOnUse" gradientTransform="translate(6.93999 13.7656) scale(7.9225)">
<stop stop-color="#593636" stop-opacity="0"/>
<stop offset="0.35" stop-color="#563435" stop-opacity="0.05"/>
<stop offset="0.54" stop-color="#4F3131" stop-opacity="0.22"/>
<stop offset="0.69" stop-color="#432A2B" stop-opacity="0.5"/>
<stop offset="0.82" stop-color="#322123" stop-opacity="0.91"/>
<stop offset="0.84" stop-color="#2F2022"/>
<stop offset="0.89" stop-color="#312123" stop-opacity="0.93"/>
<stop offset="0.94" stop-color="#3B2627" stop-opacity="0.71"/>
<stop offset="0.97" stop-color="#4A2E2F" stop-opacity="0.35"/>
<stop offset="1" stop-color="#593636" stop-opacity="0.01"/>
</radialGradient>
<radialGradient id="paint10_radial_5350_9972" cx="0" cy="0" r="1" gradientUnits="userSpaceOnUse" gradientTransform="translate(21.7375 11.8156) scale(8.07937)">
<stop stop-color="#7A6D79"/>
<stop offset="0.25" stop-color="#6C616C"/>
<stop offset="0.68" stop-color="#5B535B"/>
<stop offset="1" stop-color="#554E56"/>
</radialGradient>
<radialGradient id="paint11_radial_5350_9972" cx="0" cy="0" r="1" gradientUnits="userSpaceOnUse" gradientTransform="translate(22.2781 13.7656) scale(7.9225)">
<stop stop-color="#593636" stop-opacity="0"/>
<stop offset="0.35" stop-color="#563435" stop-opacity="0.05"/>
<stop offset="0.54" stop-color="#4F3131" stop-opacity="0.22"/>
<stop offset="0.69" stop-color="#432A2B" stop-opacity="0.5"/>
<stop offset="0.82" stop-color="#322123" stop-opacity="0.91"/>
<stop offset="0.84" stop-color="#2F2022"/>
<stop offset="0.89" stop-color="#312123" stop-opacity="0.93"/>
<stop offset="0.94" stop-color="#3B2627" stop-opacity="0.71"/>
<stop offset="0.97" stop-color="#4A2E2F" stop-opacity="0.35"/>
<stop offset="1" stop-color="#593636" stop-opacity="0.01"/>
</radialGradient>
<linearGradient id="paint12_linear_5350_9972" x1="16" y1="10.4081" x2="16" y2="12.015" gradientUnits="userSpaceOnUse">
<stop stop-color="#7A6D79"/>
<stop offset="0.25" stop-color="#6C616C"/>
<stop offset="0.68" stop-color="#5B535B"/>
<stop offset="1" stop-color="#554E56"/>
</linearGradient>
<linearGradient id="paint13_linear_5350_9972" x1="16" y1="10.8244" x2="16" y2="12.1675" gradientUnits="userSpaceOnUse">
<stop stop-color="#593636" stop-opacity="0"/>
<stop offset="0.28" stop-color="#543333" stop-opacity="0.1"/>
<stop offset="0.6" stop-color="#482D2E" stop-opacity="0.4"/>
<stop offset="0.93" stop-color="#332224" stop-opacity="0.88"/>
<stop offset="1" stop-color="#2F2022"/>
</linearGradient>
<linearGradient id="paint14_linear_5350_9972" x1="16.7841" y1="11.1822" x2="17.7641" y2="12.1922" gradientUnits="userSpaceOnUse">
<stop stop-color="#593636" stop-opacity="0"/>
<stop offset="0.28" stop-color="#543333" stop-opacity="0.1"/>
<stop offset="0.6" stop-color="#482D2E" stop-opacity="0.4"/>
<stop offset="0.93" stop-color="#332224" stop-opacity="0.88"/>
<stop offset="1" stop-color="#2F2022"/>
</linearGradient>
<linearGradient id="paint15_linear_5350_9972" x1="28.1239" y1="11.8162" x2="23.0445" y2="5.60057" gradientUnits="userSpaceOnUse">
<stop stop-color="white" stop-opacity="0"/>
<stop offset="0.09" stop-color="white" stop-opacity="0.02"/>
<stop offset="0.22" stop-color="white" stop-opacity="0.09"/>
<stop offset="0.36" stop-color="white" stop-opacity="0.2"/>
<stop offset="0.52" stop-color="white" stop-opacity="0.36"/>
<stop offset="0.69" stop-color="white" stop-opacity="0.56"/>
<stop offset="0.87" stop-color="white" stop-opacity="0.8"/>
<stop offset="1" stop-color="white"/>
</linearGradient>
<linearGradient id="paint16_linear_5350_9972" x1="6.74994" y1="21.4044" x2="1.53682" y2="16.5926" gradientUnits="userSpaceOnUse">
<stop stop-color="white" stop-opacity="0"/>
<stop offset="0.09" stop-color="white" stop-opacity="0.02"/>
<stop offset="0.22" stop-color="white" stop-opacity="0.09"/>
<stop offset="0.36" stop-color="white" stop-opacity="0.2"/>
<stop offset="0.52" stop-color="white" stop-opacity="0.36"/>
<stop offset="0.69" stop-color="white" stop-opacity="0.56"/>
<stop offset="0.87" stop-color="white" stop-opacity="0.8"/>
<stop offset="1" stop-color="white"/>
</linearGradient>
<linearGradient id="paint17_linear_5350_9972" x1="20.2486" y1="7.61763" x2="15.9024" y2="3.27138" gradientUnits="userSpaceOnUse">
<stop stop-color="white" stop-opacity="0"/>
<stop offset="0.09" stop-color="white" stop-opacity="0.02"/>
<stop offset="0.22" stop-color="white" stop-opacity="0.09"/>
<stop offset="0.36" stop-color="white" stop-opacity="0.2"/>
<stop offset="0.52" stop-color="white" stop-opacity="0.36"/>
<stop offset="0.69" stop-color="white" stop-opacity="0.56"/>
<stop offset="0.87" stop-color="white" stop-opacity="0.8"/>
<stop offset="1" stop-color="white"/>
</linearGradient>
</defs>
</svg>
